<svg width="220" height="189" viewBox="0 0 220 189" fill="none" xmlns="http://www.w3.org/2000/svg">
<path d="M213.152 95.2382C211.607 94.7903 209.385 94.3681 206.731 93.9752C210.498 82.7878 208.963 70.0142 201.484 59.7483C194.791 50.5583 184.723 45.2931 174.222 44.3936V44.3826C174.949 38.765 173.616 32.872 170.037 27.919C163.718 19.1806 152.424 16.1735 142.841 19.9736C136.757 8.11429 124.413 0 110.171 0C95.9285 0 83.6176 8.09226 77.5263 19.9222C67.9691 16.1992 56.7449 19.2173 50.4518 27.919C46.8719 32.872 45.5391 38.765 46.2661 44.3826V44.3936C35.7653 45.2931 25.6977 50.5583 19.0043 59.7483C11.5399 69.9922 9.99783 82.74 13.7355 93.9091C10.8754 94.3203 8.48146 94.7646 6.84758 95.2382C2.85653 96.6004 0 100.474 0 104.924C0 108.805 2.29477 112.253 5.50377 113.952C6.31519 114.316 6.95039 115.01 7.24044 115.865L13.4418 138.038C16.7536 152.53 29.3436 163.483 44.6286 164.335L56.778 185.377L57.2112 186.129C58.1402 187.473 59.6933 188.351 61.452 188.351H158.5C160.189 188.351 161.684 187.543 162.627 186.291C162.631 186.287 162.635 186.283 162.638 186.276L163.259 185.2C163.259 185.2 163.262 185.189 163.266 185.186L175.302 164.338C190.62 163.519 203.239 152.552 206.558 138.038L212.76 115.865C213.046 115.01 213.681 114.316 214.496 113.952C217.702 112.253 220 108.805 220 104.924C220 100.474 217.14 96.6004 213.152 95.2382ZM27.3389 65.8175C33.074 57.9456 42.22 54.0316 51.2705 54.6227L53.7856 54.9091C56.3851 55.3204 58.9479 56.1097 61.3895 57.2957C61.6612 57.4279 61.9329 57.5637 62.201 57.7106C62.212 57.7106 62.2157 57.7143 62.2193 57.7179C64.3672 58.5661 66.9007 57.8978 68.3216 55.9482C70.0069 53.6351 69.4965 50.393 67.1834 48.7078C67.1136 48.6564 67.0438 48.6086 66.9704 48.5609H66.9631C66.629 48.3773 66.2912 48.2084 65.957 48.0469C62.7407 46.4754 59.3738 45.4106 55.9555 44.8158C55.9519 44.8122 55.9519 44.8085 55.9519 44.8048C54.9899 41.023 55.6545 36.8668 58.1145 33.4595C61.8742 28.2495 68.6263 26.4908 74.321 28.8259C74.2182 29.2996 74.1191 29.7769 74.0346 30.2579C73.9685 30.614 73.9098 30.9775 73.8584 31.341V31.352C73.8547 31.4364 73.851 31.5172 73.851 31.6017C73.851 34.3884 76.1128 36.6501 78.8995 36.6501C81.2494 36.6501 83.2284 35.0383 83.7901 32.861C83.7901 32.8537 83.7901 32.85 83.7938 32.8427C83.8342 32.5489 83.8819 32.2552 83.9333 31.9652C86.1693 19.5 97.063 10.0456 110.171 10.0456C123.278 10.0456 134.26 19.5771 136.434 32.1157C136.434 32.1194 136.438 32.1267 136.438 32.134C136.467 32.3103 136.496 32.4902 136.522 32.6701C137.014 34.9428 139.037 36.6501 141.457 36.6501C144.243 36.6501 146.505 34.3884 146.505 31.6017C146.505 31.5613 146.505 31.5209 146.505 31.4805C146.443 31.0252 146.369 30.5736 146.288 30.1257C146.211 29.7071 146.123 29.2922 146.035 28.881C151.756 26.4614 158.588 28.2091 162.378 33.4595C164.838 36.8668 165.502 41.023 164.54 44.8048C164.54 44.8085 164.54 44.8122 164.536 44.8158C161.118 45.4106 157.751 46.4754 154.535 48.0469C154.201 48.2084 153.863 48.3773 153.529 48.5572H153.522C153.448 48.6086 153.378 48.6564 153.309 48.7078C150.996 50.393 150.485 53.6351 152.17 55.9482C153.591 57.8978 156.125 58.5661 158.273 57.7179C158.276 57.7179 158.28 57.7106 158.291 57.7106C158.559 57.5637 158.831 57.4279 159.102 57.2957C161.544 56.1097 164.107 55.3204 166.706 54.9091L169.221 54.6227C178.268 54.0316 187.418 57.9456 193.153 65.8175C199.05 73.9171 199.857 84.1683 196.171 92.7525C183.177 91.5336 167.911 90.8653 164.962 90.9975C153.125 91.5336 131.231 94.0523 118.369 99.6332C115.715 98.9356 112.844 98.6786 109.969 98.6786C107.094 98.6786 104.263 98.998 101.682 99.6515C88.8056 94.0597 66.8896 91.5336 55.045 90.9975C52.1297 90.8653 37.1935 91.5152 24.3061 92.7085C20.6419 84.1353 21.4533 73.9024 27.3426 65.8175H27.3389ZM36.9549 153.011C36.9549 153.011 35.6404 152.747 35.6368 152.747C31.5282 151.734 28.0916 149.013 26.1163 145.385C26.1126 145.385 26.1126 145.382 26.1126 145.378C25.5325 144.306 24.7724 141.941 24.7688 141.938C21.6075 133.313 19.7423 124.064 19.4192 114.419C19.4192 114.415 19.3715 112.385 19.3715 112.381C19.511 110.373 20.1939 108.515 21.2807 106.954C22.7053 104.898 24.8312 103.364 27.3095 102.684C27.3095 102.684 28.1871 102.482 28.1981 102.479C29.0095 102.295 29.8246 102.119 30.6434 101.954C36.2683 100.801 42.0364 100.041 47.9184 99.6993C50.2866 99.5597 52.6731 99.49 55.0744 99.49C65.5642 99.49 76.4909 101.458 86.2024 103.962C91.2252 105.284 95.3557 107.652 95.9799 112.223C95.9799 112.223 96.068 113.075 96.068 113.505C96.068 114.11 96.0827 115.263 96.0827 115.263C95.9028 119.434 95.2529 123.543 94.5149 127.545C94.5149 127.545 93.5493 133.522 92.4515 136.243C88.3025 146.582 78.5984 154.087 67.0328 155.075L60.3174 155.262C52.3243 155.262 44.5148 154.487 36.9549 153.011ZM157.072 175.261C157.072 175.261 157.068 175.269 157.065 175.272L156.848 175.647C155.93 177.079 154.326 178.026 152.501 178.026H67.411C65.667 178.026 64.1249 177.16 63.1923 175.834C63.1886 175.83 63.185 175.827 63.185 175.823L62.7334 175.045C62.7334 175.045 62.726 175.037 62.726 175.034L56.5834 164.393H68.1784C83.3165 164.393 96.2443 154.032 100.625 140.348L107.527 115.891C108.39 115.821 109.084 115.759 109.965 115.759C110.846 115.759 111.687 115.796 112.539 115.862L119.376 140.348C123.752 154.032 136.684 164.393 151.822 164.393H163.347L157.072 175.261ZM200.581 114.419C200.258 124.064 198.393 133.313 195.231 141.938C195.228 141.941 194.468 144.306 193.887 145.378C193.887 145.382 193.887 145.385 193.884 145.385C191.908 149.013 188.472 151.734 184.363 152.747C184.36 152.747 183.052 153.011 183.045 153.011C175.485 154.487 167.676 155.262 159.683 155.262L152.967 155.075C141.402 154.087 131.697 146.582 127.549 136.247C126.451 133.522 125.485 127.549 125.485 127.545C124.747 123.543 124.097 119.434 123.917 115.263C123.917 115.263 123.932 114.11 123.932 113.505C123.932 113.075 124.02 112.223 124.02 112.223C124.644 107.652 128.775 105.284 133.798 103.962C143.509 101.458 154.436 99.49 164.926 99.49C167.327 99.49 169.713 99.5597 172.082 99.6993C178.114 100.048 184.029 100.841 189.79 102.045C190.462 102.181 191.134 102.328 191.802 102.479C191.813 102.482 192.69 102.684 192.69 102.684C195.294 103.397 197.504 105.056 198.929 107.266C199.894 108.761 200.5 110.505 200.629 112.381C200.629 112.385 200.581 114.415 200.581 114.419ZM150.581 120.04C141.475 120.04 134.011 127.049 133.291 135.968C133.225 136.291 133.192 136.625 133.192 136.966C133.192 137.194 133.206 137.422 133.236 137.642C133.566 140.175 135.729 142.129 138.354 142.129C140.979 142.129 142.999 140.3 143.432 137.888C143.425 137.763 143.421 137.642 143.421 137.517C143.421 137.168 143.447 136.823 143.494 136.489C143.986 133.063 146.905 130.42 150.452 130.361C150.492 130.357 150.537 130.357 150.581 130.357C150.625 130.357 150.669 130.357 150.709 130.361C154.256 130.42 157.175 133.063 157.667 136.489C157.715 136.823 157.74 137.168 157.74 137.517C157.74 137.642 157.737 137.763 157.729 137.884C158.163 140.3 160.27 142.129 162.807 142.129C165.344 142.129 167.595 140.175 167.925 137.642C167.929 137.557 167.929 137.473 167.929 137.388C167.929 136.911 167.911 136.438 167.87 135.968C167.151 127.049 159.686 120.04 150.581 120.04ZM70.4731 144.192C74.4275 144.192 77.6328 140.987 77.6328 137.032V124.608C77.6328 120.653 74.4275 117.448 70.4731 117.448C66.5188 117.448 63.3135 120.653 63.3135 124.608V137.032C63.3135 140.987 66.5188 144.192 70.4731 144.192Z" fill="#212322"/>
<path d="M96.0676 113.505C96.0676 113.075 95.9795 112.223 95.9795 112.223C95.3553 107.652 91.2248 105.284 86.202 103.962C76.4905 101.458 65.5638 99.4902 55.074 99.4902C52.6727 99.4902 50.2862 99.56 47.918 99.6995C41.1805 100.089 34.5936 101.032 28.1977 102.479C28.1867 102.483 27.3091 102.685 27.3091 102.685C22.9473 103.878 19.6905 107.726 19.3711 112.381C19.3711 112.385 19.4188 114.415 19.4188 114.419C19.7419 124.064 21.6071 133.313 24.7684 141.938C24.7721 141.942 25.5321 144.306 26.1122 145.378C26.1122 145.382 26.1122 145.386 26.1159 145.386C28.0912 149.013 31.5278 151.734 35.6364 152.747C35.6401 152.747 35.6474 152.751 35.6511 152.751C36.0696 152.857 36.4992 152.942 36.9325 153.008C36.9398 153.011 36.9472 153.011 36.9545 153.011C44.5144 154.487 52.3239 155.262 60.317 155.262L67.0324 155.075C78.598 154.087 88.3021 146.582 92.4511 136.247C93.5489 133.523 94.5145 127.549 94.5145 127.545C95.2525 123.543 95.9024 119.434 96.0823 115.264C96.0823 115.264 96.0676 114.111 96.0676 113.505ZM77.6324 137.033C77.6324 140.987 74.4271 144.192 70.4727 144.192C66.5184 144.192 63.3131 140.987 63.3131 137.033V124.608C63.3131 120.653 66.5184 117.448 70.4727 117.448C74.4271 117.448 77.6324 120.653 77.6324 124.608V137.033ZM192.69 102.685C192.69 102.685 191.813 102.483 191.802 102.479C185.406 101.032 178.819 100.089 172.081 99.6995C169.713 99.56 167.326 99.4902 164.925 99.4902C154.435 99.4902 143.509 101.458 133.797 103.962C128.774 105.284 124.644 107.652 124.02 112.223C124.02 112.223 123.932 113.075 123.932 113.505C123.932 114.111 123.917 115.264 123.917 115.264C124.097 119.434 124.747 123.543 125.485 127.545C125.485 127.545 126.45 133.523 127.548 136.243C131.697 146.582 141.401 154.087 152.967 155.075L159.682 155.262C167.675 155.262 175.485 154.487 183.045 153.011C183.052 153.011 183.059 153.011 183.067 153.008C183.5 152.942 183.93 152.857 184.348 152.751C184.352 152.751 184.359 152.747 184.363 152.747C188.471 151.734 191.908 149.013 193.883 145.386C193.887 145.386 193.887 145.382 193.887 145.378C194.467 144.306 195.227 141.942 195.231 141.938C198.392 133.313 200.257 124.064 200.58 114.419C200.58 114.415 200.628 112.385 200.628 112.381C200.309 107.726 197.052 103.878 192.69 102.685ZM167.925 137.642C167.595 140.175 165.432 142.129 162.807 142.129C160.182 142.129 158.162 140.3 157.729 137.888C157.736 137.763 157.74 137.642 157.74 137.517C157.74 137.168 157.714 136.823 157.666 136.489C157.174 133.064 154.255 130.42 150.709 130.361C150.668 130.358 150.624 130.358 150.58 130.358C150.536 130.358 150.492 130.358 150.452 130.361C146.905 130.42 143.986 133.064 143.494 136.489C143.446 136.823 143.421 137.168 143.421 137.517C143.421 137.642 143.424 137.763 143.432 137.884C142.998 140.3 140.891 142.129 138.354 142.129C135.817 142.129 133.566 140.175 133.235 137.642C133.206 137.422 133.191 137.194 133.191 136.966C133.191 136.625 133.224 136.291 133.291 135.968C134.01 127.049 141.475 120.04 150.58 120.04C159.686 120.04 167.15 127.049 167.87 135.968C167.91 136.438 167.929 136.911 167.929 137.389C167.929 137.473 167.929 137.558 167.925 137.642Z" fill="white"/>
<path d="M96.0676 113.015C96.0676 112.585 95.9795 111.733 95.9795 111.733C95.3553 107.162 91.2248 104.794 86.202 103.472C76.4905 100.968 65.5638 99 55.074 99C52.6727 99 50.2862 99.0698 47.918 99.2093C41.1805 99.5985 34.5936 100.542 28.1977 101.989C28.1867 101.992 27.3091 102.194 27.3091 102.194C22.9473 103.388 19.6905 107.235 19.3711 111.891C19.3711 111.895 19.4188 113.925 19.4188 113.929C19.7419 123.574 21.6071 132.823 24.7684 141.448C24.7721 141.451 25.5321 143.816 26.1122 144.888C26.1122 144.892 26.1122 144.895 26.1159 144.895C28.0912 148.523 31.5278 151.244 35.6364 152.257C35.6401 152.257 35.6474 152.261 35.6511 152.261C36.0696 152.367 36.4992 152.451 36.9325 152.518C36.9398 152.521 36.9472 152.521 36.9545 152.521C44.5144 153.997 52.3239 154.772 60.317 154.772L67.0324 154.585C78.598 153.597 88.3021 146.092 92.4511 135.757C93.5489 133.032 94.5145 127.059 94.5145 127.055C95.2525 123.053 95.9024 118.944 96.0823 114.773C96.0823 114.773 96.0676 113.62 96.0676 113.015ZM192.69 102.194C192.69 102.194 191.813 101.992 191.802 101.989C185.406 100.542 178.819 99.5985 172.081 99.2093C169.713 99.0698 167.326 99 164.925 99C154.435 99 143.509 100.968 133.797 103.472C128.774 104.794 124.644 107.162 124.02 111.733C124.02 111.733 123.932 112.585 123.932 113.015C123.932 113.62 123.917 114.773 123.917 114.773C124.097 118.944 124.747 123.053 125.485 127.055C125.485 127.055 126.45 133.032 127.548 135.753C131.697 146.092 141.401 153.597 152.967 154.585L159.682 154.772C167.675 154.772 175.485 153.997 183.045 152.521C183.052 152.521 183.059 152.521 183.067 152.518C183.5 152.451 183.93 152.367 184.348 152.261C184.352 152.261 184.359 152.257 184.363 152.257C188.471 151.244 191.908 148.523 193.883 144.895C193.887 144.895 193.887 144.892 193.887 144.888C194.467 143.816 195.227 141.451 195.231 141.448C198.392 132.823 200.257 123.574 200.58 113.929C200.58 113.925 200.628 111.895 200.628 111.891C200.309 107.235 197.052 103.388 192.69 102.194Z" fill="white"/>
<path d="M119.376 140.347L112.54 115.861C111.688 115.795 110.836 115.758 109.966 115.758C109.096 115.758 108.391 115.82 107.528 115.89L100.625 140.347C96.2449 154.031 83.3171 164.392 68.179 164.392H56.584L62.7266 175.033C62.7266 175.033 62.7303 175.04 62.734 175.044L63.1856 175.822C63.1856 175.822 63.1892 175.829 63.1929 175.833C64.1255 177.158 65.6676 178.025 67.4116 178.025H152.501C154.326 178.025 155.931 177.078 156.849 175.646L157.065 175.271C157.065 175.271 157.073 175.264 157.073 175.26L163.347 164.392H151.822C136.684 164.392 123.753 154.031 119.376 140.347Z" fill="#FFD700"/>
<path d="M193.15 65.8169C187.415 57.9449 178.265 54.031 169.218 54.6221L166.703 54.9085C164.104 55.3197 161.541 56.1091 159.099 57.295C158.827 57.4272 158.556 57.5631 158.288 57.7099C158.277 57.7099 158.273 57.7136 158.269 57.7173C156.121 58.5654 153.588 57.8972 152.167 55.9476C150.482 53.6344 150.992 50.3924 153.305 48.7071C153.375 48.6557 153.445 48.608 153.518 48.5602H153.526C153.86 48.3767 154.198 48.2078 154.532 48.0462C157.748 46.4748 161.115 45.41 164.533 44.8152C164.537 44.8115 164.537 44.8079 164.537 44.8042C165.499 41.0224 164.834 36.8661 162.374 33.4589C158.585 28.2084 151.752 26.4608 146.032 28.8804C146.12 29.2916 146.208 29.7065 146.285 30.125C146.366 30.573 146.439 31.0246 146.502 31.4799C146.502 31.5202 146.502 31.5606 146.502 31.601C146.502 34.3878 144.24 36.6495 141.453 36.6495C139.034 36.6495 137.011 34.9422 136.519 32.6695C136.493 32.4896 136.464 32.3096 136.434 32.1334C136.434 32.1261 136.431 32.1187 136.431 32.1151C134.257 19.5765 123.327 10.0449 110.167 10.0449C97.0083 10.0449 86.166 19.4994 83.93 31.9645C83.8786 32.2546 83.8309 32.5483 83.7905 32.842C83.7868 32.8494 83.7868 32.853 83.7868 32.8604C83.225 35.0377 81.246 36.6495 78.8962 36.6495C76.1094 36.6495 73.8477 34.3878 73.8477 31.601C73.8477 31.5166 73.8514 31.4358 73.8551 31.3514V31.3403C73.9065 30.9768 73.9652 30.6134 74.0313 30.2572C74.1157 29.7762 74.2149 29.2989 74.3177 28.8253C68.623 26.4901 61.8709 28.2488 58.1111 33.4589C55.6511 36.8661 54.9866 41.0224 55.9485 44.8042C55.9485 44.8079 55.9485 44.8115 55.9522 44.8152C59.3705 45.41 62.7374 46.4748 65.9537 48.0462C66.2878 48.2078 66.6256 48.3767 66.9597 48.5566H66.9671C67.0405 48.608 67.1103 48.6557 67.18 48.7071C69.4932 50.3924 70.0035 53.6344 68.3182 55.9476C66.8973 57.8972 64.3639 58.5654 62.216 57.7173C62.2123 57.7173 62.2087 57.7099 62.1977 57.7099C61.9296 57.5631 61.6579 57.4272 61.3862 57.295C58.9446 56.1091 56.3818 55.3197 53.7823 54.9085L51.2672 54.6221C42.2167 54.031 33.0707 57.9449 27.3356 65.8169C21.4463 73.9018 20.6349 84.1346 24.2992 92.7079C37.1866 91.5146 52.1227 90.8647 55.038 90.9969C66.8826 91.5329 88.7986 94.059 101.675 99.6509C104.256 98.9973 107.179 98.6779 109.962 98.6779C112.745 98.6779 115.708 98.9349 118.362 99.6325C131.224 94.0517 153.118 91.5329 164.955 90.9969C167.904 90.8647 183.17 91.5329 196.164 92.7519C199.85 84.1677 199.043 73.9165 193.146 65.8169H193.15Z" fill="#FFD700"/>
<path d="M82.3193 140.584C82.3193 144.539 79.114 147.744 75.1597 147.744C71.2053 147.744 68 144.539 68 140.584V128.16C68 124.205 71.2053 121 75.1597 121C79.114 121 82.3193 124.205 82.3193 128.16V140.584Z" fill="#212322"/>
<path d="M151.319 140.584C151.319 144.539 148.114 147.744 144.16 147.744C140.205 147.744 137 144.539 137 140.584V128.16C137 124.205 140.205 121 144.16 121C148.114 121 151.319 124.205 151.319 128.16V140.584Z" fill="#212322"/>
</svg>
