<svg width="220" height="189" viewBox="0 0 220 189" fill="none" xmlns="http://www.w3.org/2000/svg">
<path d="M196.553 91.8083C192.176 91.2539 187.73 90.9602 183.283 90.9602L183.298 90.9969H157.549C157.802 90.9895 158.056 90.9822 158.313 90.9822L156.73 90.9969H157.549C143.652 91.3567 130.423 94.4005 118.365 99.6325C115.711 98.9349 112.84 98.6779 109.965 98.6779C107.09 98.6779 104.259 98.9974 101.678 99.6509C89.6055 94.4078 76.3657 91.3567 62.4539 90.9969H63.269L61.6939 90.9822C61.9472 90.9859 62.2006 90.9895 62.4539 90.9969H36.7011L36.7158 90.9602C32.4273 90.9602 28.1389 91.2319 23.9129 91.7496C20.7039 83.3783 21.6695 73.6044 27.3385 65.8169C33.0515 57.9743 42.1535 54.0567 51.1673 54.6111C52.0118 54.9672 52.948 55.0774 53.8659 54.9158C56.4361 55.3307 58.9732 56.1201 61.3891 57.295C61.6608 57.4272 61.9326 57.5631 62.2006 57.7099C62.2116 57.7099 62.2152 57.7136 62.2189 57.7173C64.3668 58.5654 66.9002 57.8972 68.3212 55.9476C70.0064 53.6344 69.496 50.3924 67.1829 48.7071C67.1132 48.6557 67.0435 48.608 66.97 48.5603H66.9627C66.6286 48.3767 66.2908 48.2078 65.9567 48.0462C62.7403 46.4748 59.3698 45.399 55.9515 44.8042C54.9895 41.0224 55.654 36.8661 58.114 33.4589C61.8738 28.2525 68.6259 26.4901 74.3169 28.8216C74.2141 29.2952 74.1187 29.7762 74.0342 30.2572C73.9681 30.6134 73.9094 30.9768 73.858 31.3403V31.3514C73.858 31.4358 73.8506 31.5166 73.8506 31.601C73.8506 34.3878 76.1124 36.6495 78.8991 36.6495C81.249 36.6495 83.2279 35.0377 83.7897 32.8604C83.7897 32.853 83.7897 32.8494 83.7897 32.842C83.8301 32.5483 83.8778 32.2546 83.9292 31.9645C86.1653 19.4994 97.0589 10.0449 110.167 10.0449C123.274 10.0449 134.256 19.5765 136.43 32.1151C136.43 32.1187 136.43 32.1261 136.43 32.1334C136.459 32.3097 136.489 32.4896 136.514 32.6695C137.006 34.9422 139.029 36.6495 141.449 36.6495C144.236 36.6495 146.497 34.3878 146.497 31.601C146.497 31.5606 146.497 31.5203 146.494 31.4799C146.431 31.0246 146.358 30.573 146.277 30.125C146.2 29.7065 146.119 29.2916 146.027 28.8804C151.748 26.4608 158.577 28.2084 162.366 33.4589C164.826 36.8661 165.491 41.0224 164.529 44.8042C161.11 45.399 157.74 46.4748 154.524 48.0462C154.189 48.2078 153.852 48.3767 153.518 48.5566H153.51C153.437 48.608 153.367 48.6557 153.297 48.7071C150.984 50.3924 150.474 53.6344 152.159 55.9476C153.58 57.8972 156.113 58.5654 158.261 57.7173C158.265 57.7173 158.269 57.7099 158.28 57.7099C158.548 57.5631 158.819 57.4272 159.091 57.295C161.507 56.1201 164.044 55.3307 166.614 54.9158C167.532 55.0774 168.468 54.9672 169.313 54.6111C178.327 54.0567 187.429 57.9743 193.142 65.8169C198.825 73.6228 199.78 83.426 196.545 91.8083H196.553ZM151.821 164.393C136.683 164.393 123.752 154.031 119.375 140.347L112.538 115.861C111.687 115.795 110.835 115.758 109.965 115.758C109.095 115.758 108.39 115.821 107.527 115.89L100.624 140.347C96.2439 154.031 83.316 164.393 68.1779 164.393H56.583L62.7256 175.033C62.7256 175.033 62.7256 175.04 62.733 175.044L63.1846 175.822C63.1846 175.822 63.1846 175.83 63.1919 175.833C64.1245 177.159 65.6666 178.025 67.4106 178.025H152.5C154.325 178.025 155.93 177.078 156.848 175.646L157.064 175.272C157.064 175.272 157.072 175.264 157.072 175.261L163.346 164.393H151.821Z" fill="#FFD700"/>
<path d="M61.6943 90.9828C61.9476 90.9865 62.201 90.9902 62.4544 90.9975H63.2694L61.6943 90.9828ZM156.731 90.9975H157.549C157.674 90.9975 157.803 90.9902 157.931 90.9865L156.731 90.9975ZM61.6943 90.9828C61.9476 90.9865 62.201 90.9902 62.4544 90.9975H63.2694L61.6943 90.9828ZM156.731 90.9975H157.549C157.674 90.9975 157.803 90.9902 157.931 90.9865L156.731 90.9975ZM156.731 90.9975H157.549C157.674 90.9975 157.803 90.9902 157.931 90.9865L156.731 90.9975ZM62.4544 90.9975H63.2694L61.6943 90.9828C61.9476 90.9865 62.201 90.9902 62.4544 90.9975ZM213.152 95.2383C211.093 94.6398 208.989 94.0964 206.852 93.6154C210.465 82.5161 208.882 69.904 201.484 59.7483C194.791 50.5619 184.727 45.2858 174.222 44.3826C174.949 38.765 173.616 32.872 170.037 27.919C163.718 19.1806 152.424 16.1698 142.841 19.9663C136.757 8.11062 124.413 0 110.171 0C95.9285 0 83.6139 8.08859 77.5227 19.9186C67.9655 16.1955 56.7413 19.2173 50.4518 27.919C46.872 32.872 45.5392 38.765 46.2661 44.3826C35.7616 45.2858 25.6977 50.5619 19.0043 59.7483C11.628 69.871 10.0346 82.439 13.6034 93.5126C11.3086 94.0193 9.05428 94.5957 6.84763 95.2383C2.85658 96.6004 0 100.474 0 104.924C0 108.805 2.29476 112.253 5.50376 113.953C6.31519 114.316 6.95037 115.01 7.24043 115.865L13.4419 138.038C15.0978 145.286 19.0741 151.649 24.5448 156.308C30.0192 160.964 36.988 163.916 44.6323 164.338L56.778 185.377L57.2113 186.129C58.1402 187.473 59.6933 188.351 61.452 188.351H158.5C160.189 188.351 161.684 187.543 162.627 186.291C162.631 186.287 162.635 186.283 162.638 186.276L163.259 185.2C163.259 185.2 163.262 185.189 163.266 185.186L175.302 164.342C190.62 163.523 203.239 152.552 206.558 138.038L212.76 115.865C213.046 115.01 213.681 114.316 214.496 113.953C217.702 112.253 220 108.805 220 104.924C220 100.474 217.14 96.6004 213.152 95.2383ZM27.3389 65.8175C33.0519 57.9749 42.154 54.0573 51.1678 54.6117C51.7589 54.8614 52.3904 54.9899 53.0329 54.9899C53.312 54.9899 53.591 54.9642 53.8664 54.9165C56.4365 55.3314 58.9736 56.1208 61.3895 57.2957C61.6612 57.4279 61.933 57.5637 62.201 57.7106C62.2121 57.7106 62.2156 57.7143 62.2193 57.7179C64.3672 58.5661 66.9007 57.8978 68.3216 55.9482C70.0069 53.6351 69.4965 50.393 67.1834 48.7078C67.1136 48.6564 67.0439 48.6086 66.9705 48.5609H66.9631C66.629 48.3773 66.2912 48.2084 65.9571 48.0469C62.7408 46.4754 59.3702 45.3996 55.9519 44.8048C54.99 41.0231 55.6545 36.8668 58.1145 33.4595C61.8742 28.2531 68.6264 26.4908 74.3174 28.8222C74.2146 29.2959 74.1191 29.7769 74.0347 30.2579C73.9686 30.614 73.9098 30.9775 73.8584 31.341V31.352C73.8548 31.4364 73.8511 31.5172 73.8511 31.6017C73.8511 34.3884 76.1128 36.6501 78.8996 36.6501C81.2494 36.6501 83.2284 35.0383 83.7901 32.861C83.7901 32.8537 83.7901 32.85 83.7938 32.8427C83.8342 32.5489 83.882 32.2552 83.9334 31.9652C86.1694 19.5 97.0631 10.0456 110.171 10.0456C123.278 10.0456 134.26 19.5771 136.434 32.1157C136.434 32.1194 136.438 32.1267 136.438 32.1341C136.467 32.3103 136.496 32.4902 136.522 32.6701C137.014 34.9428 139.037 36.6501 141.457 36.6501C144.243 36.6501 146.505 34.3884 146.505 31.6017C146.505 31.5613 146.505 31.5209 146.501 31.4805C146.439 31.0252 146.366 30.5736 146.285 30.1257C146.208 29.7071 146.127 29.2922 146.035 28.881C151.756 26.4614 158.585 28.2091 162.374 33.4595C164.834 36.8668 165.498 41.0231 164.537 44.8048C161.118 45.3996 157.748 46.4754 154.531 48.0469C154.197 48.2084 153.859 48.3773 153.525 48.5572H153.518C153.445 48.6086 153.375 48.6564 153.305 48.7078C150.992 50.393 150.481 53.6351 152.167 55.9482C153.588 57.8978 156.121 58.5661 158.269 57.7179C158.273 57.7143 158.276 57.7106 158.287 57.7106C158.555 57.5637 158.827 57.4279 159.099 57.2957C160.307 56.7082 161.544 56.2162 162.804 55.8197C164.059 55.4268 165.337 55.1258 166.622 54.9165C166.897 54.9642 167.176 54.9899 167.455 54.9899C168.098 54.9899 168.73 54.8614 169.321 54.6117C178.335 54.0573 187.436 57.9749 193.149 65.8175C198.833 73.6234 199.788 83.4266 196.553 91.809C192.176 91.2545 187.73 90.9608 183.284 90.9608L183.298 90.9975H157.549C143.652 91.3573 130.423 94.4011 118.366 99.6332C115.711 98.9356 112.84 98.6786 109.965 98.6786C107.09 98.6786 104.259 98.998 101.678 99.6515C89.6059 94.4085 76.3661 91.3573 62.4544 90.9975H36.7015L36.7162 90.9608C32.4278 90.9608 28.1394 91.2325 23.9133 91.7502C20.7043 83.3789 21.6699 73.605 27.3389 65.8175ZM36.9549 153.011C36.9549 153.011 36.9402 153.011 36.9329 153.008C36.4996 152.941 36.0701 152.857 35.6515 152.751C35.6478 152.751 35.6405 152.751 35.6368 152.751C31.5283 151.737 28.0916 149.017 26.1163 145.389C26.1126 145.389 26.1126 145.385 26.1126 145.382C25.5325 144.309 24.7724 141.945 24.7688 141.941C21.6075 133.317 19.7424 124.068 19.4193 114.422C19.4193 114.419 19.3715 112.388 19.3715 112.385C19.3825 112.238 19.3936 112.095 19.4119 111.951C19.4266 111.812 19.4449 111.672 19.467 111.537C19.478 111.437 19.4927 111.338 19.5147 111.239C19.5331 111.125 19.5514 111.019 19.5771 110.909C19.5992 110.799 19.6248 110.688 19.6505 110.582C19.6726 110.475 19.7019 110.373 19.7313 110.27C19.7533 110.189 19.7753 110.108 19.801 110.031C19.8157 109.969 19.8341 109.906 19.8562 109.848C19.9626 109.499 20.0912 109.161 20.238 108.831C20.2784 108.731 20.3224 108.636 20.3702 108.541C20.6272 107.986 20.9319 107.457 21.2807 106.958C21.3688 106.83 21.4606 106.705 21.5561 106.58C21.6442 106.462 21.7323 106.349 21.8241 106.238C21.8315 106.227 21.8425 106.216 21.8498 106.209C21.949 106.092 22.0518 105.974 22.1546 105.86C22.2427 105.761 22.3308 105.666 22.4226 105.578C22.4667 105.526 22.5144 105.482 22.5584 105.438C22.6429 105.354 22.7237 105.273 22.8118 105.196C22.911 105.104 23.01 105.012 23.1129 104.928C23.6966 104.421 24.3356 103.977 25.0222 103.61C25.114 103.558 25.2094 103.507 25.3049 103.463C25.3306 103.448 25.3526 103.433 25.3783 103.426C25.4774 103.375 25.5765 103.327 25.6756 103.283C25.7895 103.228 25.907 103.176 26.0245 103.132C26.1126 103.092 26.2007 103.059 26.2889 103.026C26.3366 103.004 26.388 102.985 26.4394 102.967C26.5458 102.927 26.6487 102.89 26.7552 102.861C26.9387 102.794 27.1223 102.739 27.3096 102.688C27.3096 102.688 28.1871 102.486 28.1981 102.482C29.7181 102.137 31.2492 101.825 32.7876 101.539C33.1328 101.473 33.4779 101.41 33.823 101.352C34.1792 101.289 34.5316 101.227 34.8878 101.168C35.2256 101.109 35.5597 101.058 35.8938 101.003C35.9452 100.995 35.9966 100.984 36.048 100.977C36.3748 100.926 36.7016 100.878 37.032 100.826C37.3882 100.775 37.748 100.724 38.1041 100.672C38.8238 100.573 39.5434 100.478 40.2668 100.39C40.7808 100.327 41.3022 100.265 41.8198 100.21C42.176 100.169 42.5358 100.133 42.8956 100.099C43.149 100.074 43.4023 100.048 43.6557 100.026C43.9274 100 44.2027 99.9746 44.4781 99.9526C44.7865 99.9232 45.0913 99.8975 45.3997 99.8755C45.8072 99.8425 46.2184 99.8131 46.6296 99.7874C47.0555 99.7543 47.4888 99.7286 47.9184 99.7029C50.2866 99.5634 52.6731 99.4937 55.0744 99.4937C65.5642 99.4937 76.491 101.462 86.2024 103.966C91.2252 105.287 95.3558 107.656 95.98 112.227C95.98 112.227 96.0681 113.079 96.0681 113.508C96.0681 114.114 96.0827 115.267 96.0827 115.267C95.9028 119.438 95.253 123.546 94.515 127.549C94.515 127.552 93.5493 133.526 92.4515 136.247C88.3026 146.586 78.5985 154.091 67.0329 155.078L60.3174 155.266C52.3243 155.266 44.5148 154.491 36.9549 153.015V153.011ZM157.072 175.261C157.072 175.261 157.068 175.269 157.065 175.272L156.848 175.647C155.93 177.079 154.326 178.026 152.501 178.026H67.411C65.667 178.026 64.1249 177.16 63.1924 175.834C63.1887 175.834 63.185 175.827 63.185 175.823L62.7334 175.045C62.7334 175.045 62.7261 175.037 62.7261 175.034L56.5834 164.393H68.1784C83.3165 164.393 96.2443 154.032 100.625 140.348L107.527 115.891C108.39 115.821 109.084 115.759 109.965 115.759C110.846 115.759 111.687 115.796 112.539 115.862L119.376 140.348C123.752 154.032 136.684 164.393 151.822 164.393H163.347L157.072 175.261ZM200.581 114.419C200.258 124.064 198.393 133.313 195.231 141.938C195.231 141.938 194.468 144.306 193.887 145.378C193.887 145.378 193.887 145.385 193.884 145.385C191.908 149.013 188.472 151.734 184.363 152.747C184.36 152.747 184.352 152.747 184.349 152.747C183.93 152.853 183.5 152.938 183.067 153.004C183.06 153.008 183.052 153.008 183.045 153.008C175.485 154.484 167.676 155.258 159.683 155.258L152.967 155.071C141.402 154.083 131.698 146.579 127.549 136.243C126.451 133.519 125.485 127.545 125.485 127.541C124.747 123.539 124.097 119.431 123.917 115.26C123.917 115.26 123.932 114.107 123.932 113.501C123.932 113.071 124.02 112.22 124.02 112.22C124.644 107.648 128.775 105.28 133.798 103.958C143.509 101.454 154.436 99.4863 164.926 99.4863C167.327 99.4863 169.713 99.5561 172.082 99.6956C172.504 99.7213 172.923 99.747 173.345 99.7764C173.763 99.8021 174.182 99.8351 174.6 99.8682C174.92 99.8939 175.236 99.9196 175.551 99.9453C175.856 99.9746 176.161 100 176.466 100.03C176.693 100.052 176.925 100.074 177.156 100.096C177.494 100.129 177.835 100.166 178.173 100.202C178.819 100.272 179.462 100.345 180.104 100.426C180.416 100.467 180.725 100.507 181.037 100.547C181.408 100.595 181.775 100.647 182.142 100.698C183.247 100.856 184.349 101.028 185.439 101.216C185.806 101.278 186.17 101.344 186.533 101.407C186.897 101.473 187.26 101.542 187.624 101.609C187.983 101.678 188.347 101.748 188.707 101.821C189.07 101.891 189.43 101.965 189.79 102.042C190.062 102.093 190.33 102.152 190.601 102.211C191.002 102.295 191.402 102.383 191.802 102.475C191.813 102.479 192.691 102.681 192.691 102.681C192.826 102.717 192.962 102.758 193.094 102.802C193.183 102.827 193.267 102.857 193.351 102.886C193.447 102.916 193.539 102.952 193.634 102.989C193.645 102.989 193.656 102.993 193.663 103C193.796 103.048 193.928 103.103 194.06 103.158C194.166 103.202 194.269 103.246 194.372 103.297C194.464 103.338 194.556 103.382 194.648 103.43C194.916 103.562 195.18 103.705 195.433 103.863C195.562 103.94 195.69 104.021 195.815 104.105C195.844 104.124 195.877 104.146 195.907 104.168C195.999 104.23 196.09 104.292 196.179 104.359C196.226 104.388 196.27 104.421 196.314 104.458C196.395 104.516 196.476 104.579 196.557 104.645C196.839 104.869 197.115 105.108 197.376 105.365C197.493 105.478 197.607 105.596 197.717 105.713C197.823 105.827 197.93 105.945 198.029 106.062C198.044 106.073 198.055 106.088 198.066 106.103C198.143 106.191 198.216 106.279 198.29 106.374C198.657 106.83 198.987 107.318 199.274 107.836C199.329 107.931 199.38 108.03 199.432 108.129C199.641 108.522 199.821 108.933 199.979 109.356C200.012 109.444 200.045 109.536 200.074 109.624C200.272 110.2 200.419 110.795 200.518 111.412C200.533 111.489 200.544 111.562 200.551 111.639C200.559 111.676 200.562 111.716 200.566 111.757C200.581 111.841 200.588 111.926 200.599 112.01C200.61 112.131 200.621 112.253 200.629 112.377C200.629 112.377 200.581 114.411 200.581 114.415V114.419ZM156.731 90.9975H157.549C157.674 90.9975 157.803 90.9902 157.931 90.9865L156.731 90.9975ZM61.6943 90.9828C61.9476 90.9865 62.201 90.9902 62.4544 90.9975H63.2694L61.6943 90.9828ZM61.6943 90.9828C61.9476 90.9865 62.201 90.9902 62.4544 90.9975H63.2694L61.6943 90.9828ZM156.731 90.9975H157.549C157.674 90.9975 157.803 90.9902 157.931 90.9865L156.731 90.9975Z" fill="#212322"/>
<path d="M200.628 112.381C200.628 112.381 200.581 114.415 200.581 114.419C200.257 124.064 198.392 133.313 195.231 141.938C195.227 141.938 194.467 144.306 193.887 145.378C193.887 145.382 193.887 145.386 193.883 145.386C191.908 149.013 188.472 151.734 184.363 152.747C184.359 152.747 184.352 152.751 184.348 152.751C183.93 152.857 183.5 152.942 183.067 153.008C183.06 153.011 183.052 153.012 183.045 153.012C175.485 154.487 167.675 155.262 159.682 155.262L152.967 155.075C141.401 154.087 131.697 146.582 127.548 136.247C126.45 133.523 125.485 127.549 125.485 127.545C124.747 123.543 124.097 119.434 123.917 115.264C123.917 115.264 123.932 114.111 123.932 113.505C123.932 113.075 124.02 112.223 124.02 112.223C124.644 107.652 128.775 105.284 133.797 103.962C143.509 101.458 154.436 99.4902 164.925 99.4902C167.327 99.4902 169.713 99.56 172.081 99.6995C172.504 99.7252 172.922 99.7509 173.344 99.7803C173.763 99.806 174.182 99.839 174.6 99.8721C174.92 99.8978 175.235 99.9235 175.551 99.9492C175.856 99.9786 176.161 100.004 176.465 100.034C176.693 100.056 176.924 100.078 177.156 100.1C177.493 100.133 177.835 100.169 178.173 100.206C178.819 100.276 179.461 100.349 180.104 100.43C180.416 100.471 180.724 100.511 181.036 100.551C181.407 100.599 181.774 100.65 182.142 100.702C183.247 100.86 184.348 101.032 185.439 101.22C185.806 101.282 186.169 101.348 186.533 101.41C186.896 101.477 187.26 101.546 187.623 101.612C187.983 101.682 188.347 101.752 188.706 101.825C189.07 101.895 189.43 101.969 189.79 102.046C190.061 102.097 190.329 102.156 190.601 102.215C191.001 102.299 191.401 102.387 191.802 102.479C191.813 102.483 192.69 102.685 192.69 102.685C192.826 102.721 192.962 102.762 193.094 102.806C193.182 102.831 193.267 102.861 193.351 102.89C193.447 102.92 193.538 102.956 193.634 102.993C193.645 102.993 193.656 102.997 193.663 103.004C193.795 103.052 193.928 103.107 194.06 103.162C194.166 103.206 194.269 103.25 194.372 103.301C194.464 103.342 194.555 103.386 194.647 103.434C194.915 103.566 195.18 103.709 195.433 103.867C195.561 103.944 195.69 104.025 195.815 104.109C195.844 104.127 195.877 104.15 195.907 104.172C195.998 104.234 196.09 104.296 196.178 104.362C196.226 104.392 196.27 104.425 196.314 104.462C196.395 104.52 196.476 104.583 196.556 104.649C196.839 104.873 197.115 105.111 197.375 105.369C197.493 105.482 197.606 105.6 197.717 105.717C197.823 105.831 197.93 105.949 198.029 106.066C198.043 106.077 198.054 106.092 198.065 106.106C198.143 106.195 198.216 106.283 198.289 106.378C198.657 106.833 198.987 107.322 199.273 107.84C199.328 107.935 199.38 108.034 199.431 108.133C199.641 108.526 199.821 108.937 199.978 109.36C200.011 109.448 200.045 109.539 200.074 109.628C200.272 110.204 200.419 110.799 200.518 111.416C200.533 111.493 200.544 111.566 200.551 111.643C200.558 111.68 200.562 111.72 200.566 111.761C200.58 111.845 200.588 111.93 200.599 112.014C200.61 112.135 200.621 112.256 200.628 112.381Z" fill="white"/>
<path d="M96.0823 115.264C95.9024 119.434 95.2526 123.543 94.5146 127.545C94.5146 127.549 93.5489 133.523 92.4511 136.243C88.3022 146.582 78.5981 154.087 67.0325 155.075L60.3171 155.262C52.3239 155.262 44.5144 154.487 36.9545 153.012C36.9472 153.012 36.9398 153.011 36.9325 153.008C36.4992 152.942 36.0697 152.857 35.6511 152.751C35.6511 152.751 35.6401 152.747 35.6364 152.747C31.5279 151.734 28.0912 149.013 26.1159 145.386C26.1122 145.386 26.1122 145.382 26.1122 145.378C25.5321 144.306 24.772 141.942 24.7684 141.938C21.6071 133.313 19.742 124.064 19.4189 114.419C19.4189 114.415 19.3711 112.385 19.3711 112.381C19.3821 112.234 19.3932 112.091 19.4115 111.948C19.4262 111.809 19.4445 111.669 19.4666 111.533C19.4776 111.434 19.4923 111.335 19.5143 111.236C19.5327 111.122 19.551 111.015 19.5767 110.905C19.5988 110.795 19.6244 110.685 19.6501 110.579C19.6722 110.472 19.7015 110.369 19.7309 110.266C19.7529 110.186 19.7749 110.105 19.8006 110.028C19.8153 109.965 19.8337 109.903 19.8558 109.844C19.9623 109.495 20.0908 109.158 20.2376 108.827C20.278 108.728 20.322 108.633 20.3698 108.537C20.6268 107.983 20.9315 107.454 21.2803 106.955C21.3684 106.826 21.4602 106.701 21.5557 106.576C21.6438 106.459 21.7319 106.345 21.8237 106.235C21.8311 106.224 21.8421 106.213 21.8494 106.206C21.9486 106.088 22.0514 105.971 22.1542 105.857C22.2423 105.758 22.3304 105.662 22.4222 105.574C22.4663 105.523 22.514 105.479 22.558 105.435C22.6425 105.35 22.7233 105.269 22.8114 105.192C22.9106 105.1 23.0097 105.009 23.1125 104.924C23.6962 104.418 24.3352 103.973 25.0218 103.606C25.1136 103.555 25.209 103.503 25.3045 103.459C25.3302 103.445 25.3522 103.43 25.3779 103.423C25.477 103.371 25.5761 103.323 25.6752 103.279C25.7891 103.224 25.9066 103.173 26.0241 103.129C26.1122 103.088 26.2003 103.055 26.2885 103.022C26.3362 103 26.3876 102.982 26.439 102.964C26.5454 102.923 26.6483 102.886 26.7548 102.857C26.9383 102.791 27.1219 102.736 27.3092 102.685C27.3092 102.685 28.1867 102.483 28.1977 102.479C29.7177 102.134 31.2488 101.822 32.7872 101.535C33.1324 101.469 33.4775 101.407 33.8226 101.348C34.1788 101.286 34.5312 101.223 34.8874 101.164C35.2252 101.106 35.5593 101.054 35.8934 100.999C35.9448 100.992 35.9962 100.981 36.0476 100.974C36.3744 100.922 36.7012 100.874 37.0316 100.823C37.3878 100.772 37.7476 100.72 38.1037 100.669C38.8234 100.57 39.5431 100.474 40.2664 100.386C40.7804 100.324 41.3018 100.261 41.8195 100.206C42.1756 100.166 42.5354 100.129 42.8952 100.096C43.1486 100.07 43.4019 100.045 43.6553 100.023C43.927 99.9969 44.2023 99.9712 44.4777 99.9492C44.7861 99.9198 45.0909 99.8941 45.3993 99.8721C45.8068 99.839 46.218 99.8097 46.6292 99.784C47.0551 99.7509 47.4884 99.7252 47.918 99.6995C50.2862 99.56 52.6727 99.4902 55.074 99.4902C65.5638 99.4902 76.4906 101.458 86.202 103.962C91.2248 105.284 95.3554 107.652 95.9796 112.223C95.9796 112.223 96.0677 113.075 96.0677 113.505C96.0677 114.111 96.0823 115.264 96.0823 115.264Z" fill="white"/>
<path d="M84.6159 121.53C84.6159 123.2 84.1203 124.757 83.2684 126.057H83.2648L82.6222 126.912L82.6112 126.923L82.5928 126.945L76.4355 135.148L69.7752 144.007C69.2612 144.11 68.7361 144.162 68.1964 144.162C67.6567 144.162 67.15 144.11 66.647 144.015H66.6433L59.9536 135.207L54.0423 127.43V127.423L52.6067 125.539L52.5994 125.532C51.9458 124.35 51.5713 122.98 51.5713 121.533C51.5713 116.962 55.276 113.261 59.8435 113.261C64.411 113.261 67.7852 116.643 68.0936 120.931C68.0752 121.13 68.068 121.331 68.068 121.533C68.068 121.735 68.0752 121.937 68.0936 122.136C68.112 121.937 68.1193 121.735 68.1193 121.533C68.1193 121.331 68.112 121.13 68.0936 120.931C68.3983 116.643 71.9745 113.261 76.3437 113.261C80.713 113.261 84.6159 116.966 84.6159 121.533V121.53ZM160.879 113.258C156.514 113.258 152.937 116.639 152.629 120.928C152.647 121.126 152.655 121.328 152.655 121.53C152.655 121.732 152.647 121.934 152.629 122.132C152.611 121.934 152.603 121.732 152.603 121.53C152.603 121.328 152.611 121.126 152.629 120.928C152.324 116.639 148.748 113.258 144.379 113.258C140.01 113.258 136.107 116.962 136.107 121.53C136.107 122.976 136.481 124.342 137.135 125.528L137.142 125.535L138.57 127.419V127.426L144.485 135.203L151.175 144.011H151.179C151.678 144.11 152.196 144.158 152.728 144.158C153.261 144.158 153.793 144.107 154.307 144.004L160.967 135.144L167.125 126.942L167.143 126.92L167.154 126.909L167.797 126.057H167.8C168.652 124.753 169.148 123.197 169.148 121.526C169.148 116.955 165.443 113.254 160.876 113.254L160.879 113.258Z" fill="#B71C1C"/>
</svg>
