<svg width="220" height="189" viewBox="0 0 220 189" fill="none" xmlns="http://www.w3.org/2000/svg">
<path d="M196.553 91.8083C192.176 91.2539 187.73 90.9601 183.284 90.9601L183.298 90.9969H157.549C157.803 90.9895 158.056 90.9822 158.313 90.9822L156.73 90.9969H157.549C143.652 91.3567 130.423 94.4005 118.366 99.6325C115.711 98.9349 112.84 98.6779 109.965 98.6779C107.09 98.6779 104.259 98.9973 101.678 99.6508C89.6059 94.4077 76.366 91.3567 62.4542 90.9969H63.2693L61.6942 90.9822C61.9475 90.9858 62.2009 90.9895 62.4542 90.9969H36.7015L36.7161 90.9601C32.4277 90.9601 28.1392 91.2319 23.9132 91.7496C20.7042 83.3783 21.6698 73.6044 27.3388 65.8168C33.0519 57.9743 42.1538 54.0566 51.1677 54.611C52.0121 54.9672 52.9484 55.0774 53.8663 54.9158C56.4364 55.3307 58.9735 56.1201 61.3894 57.295C61.6611 57.4272 61.9328 57.563 62.2009 57.7099C62.2119 57.7099 62.2156 57.7135 62.2192 57.7172C64.3671 58.5654 66.9006 57.8972 68.3215 55.9476C70.0067 53.6344 69.4964 50.3923 67.1833 48.707C67.1135 48.6556 67.0437 48.6079 66.9703 48.5602H66.9629C66.6288 48.3766 66.291 48.2078 65.9569 48.0462C62.7406 46.4748 59.37 45.3989 55.9517 44.8041C54.9898 41.0224 55.6544 36.8661 58.1143 33.4589C61.8741 28.2525 68.6262 26.4901 74.3172 28.8216C74.2144 29.2952 74.1189 29.7762 74.0345 30.2571C73.9684 30.6133 73.9097 30.9768 73.8583 31.3403V31.3514C73.8583 31.4358 73.8509 31.5166 73.8509 31.601C73.8509 34.3878 76.1126 36.6495 78.8994 36.6495C81.2492 36.6495 83.2283 35.0376 83.79 32.8603C83.79 32.853 83.79 32.8493 83.79 32.842C83.8304 32.5482 83.8781 32.2546 83.9295 31.9645C86.1656 19.4993 97.0593 10.0449 110.167 10.0449C123.275 10.0449 134.256 19.5764 136.43 32.115C136.43 32.1187 136.43 32.126 136.43 32.1334C136.459 32.3096 136.489 32.4895 136.515 32.6694C137.007 34.9422 139.03 36.6495 141.449 36.6495C144.236 36.6495 146.498 34.3878 146.498 31.601C146.498 31.5606 146.498 31.5202 146.494 31.4798C146.432 31.0245 146.358 30.5729 146.277 30.125C146.2 29.7064 146.12 29.2915 146.028 28.8803C151.748 26.4607 158.577 28.2084 162.366 33.4589C164.826 36.8661 165.491 41.0224 164.529 44.8041C161.111 45.3989 157.74 46.4748 154.524 48.0462C154.19 48.2078 153.852 48.3766 153.518 48.5565H153.51C153.437 48.6079 153.367 48.6556 153.298 48.707C150.984 50.3923 150.474 53.6344 152.159 55.9476C153.58 57.8972 156.114 58.5654 158.262 57.7172C158.265 57.7172 158.269 57.7099 158.28 57.7099C158.548 57.563 158.82 57.4272 159.091 57.295C161.507 56.1201 164.044 55.3307 166.614 54.9158C167.532 55.0774 168.469 54.9672 169.313 54.611C178.327 54.0566 187.429 57.9743 193.142 65.8168C198.826 73.6227 199.78 83.426 196.546 91.8083H196.553ZM151.822 164.393C136.683 164.393 123.752 154.031 119.375 140.347L112.539 115.861C111.687 115.795 110.835 115.758 109.965 115.758C109.095 115.758 108.39 115.821 107.527 115.89L100.624 140.347C96.2442 154.031 83.3164 164.393 68.1783 164.393H56.5833L62.7259 175.033C62.7259 175.033 62.7259 175.04 62.7333 175.044L63.1849 175.822C63.1849 175.822 63.1849 175.83 63.1922 175.833C64.1248 177.159 65.6669 178.025 67.4109 178.025H152.501C154.326 178.025 155.93 177.078 156.848 175.646L157.065 175.272C157.065 175.272 157.072 175.264 157.072 175.261L163.347 164.393H151.822Z" fill="#FFD700"/>
<path d="M200.629 112.381C200.629 112.381 200.581 114.415 200.581 114.419C200.258 124.064 198.393 133.313 195.231 141.938C195.228 141.941 194.468 144.306 193.887 145.378C193.887 145.378 193.887 145.385 193.884 145.385C191.908 149.013 188.472 151.734 184.363 152.747C184.36 152.747 184.352 152.747 184.349 152.747C183.93 152.853 183.5 152.938 183.067 153.004C183.06 153.008 183.053 153.008 183.045 153.008C175.485 154.484 167.676 155.258 159.683 155.258L152.967 155.071C141.402 154.083 131.698 146.579 127.549 136.243C126.451 133.519 125.485 127.545 125.485 127.541C124.747 123.539 124.097 119.431 123.917 115.26C123.917 115.26 123.932 114.107 123.932 113.501C123.932 113.071 124.02 112.22 124.02 112.22C124.644 107.648 128.775 105.28 133.798 103.958C143.509 101.454 154.436 99.4863 164.926 99.4863C167.327 99.4863 169.714 99.5561 172.082 99.6956C178.114 100.044 184.029 100.837 189.79 102.042C190.462 102.178 191.134 102.325 191.802 102.475C191.813 102.479 192.691 102.681 192.691 102.681C195.294 103.393 197.504 105.053 198.929 107.263C199.894 108.757 200.5 110.501 200.629 112.377V112.381ZM96.0681 113.505C96.0681 113.075 95.98 112.223 95.98 112.223C95.3558 107.652 91.2252 105.284 86.2025 103.962C76.491 101.458 65.5643 99.49 55.0744 99.49C52.6732 99.49 50.2866 99.5598 47.9184 99.6993C42.0365 100.041 36.2684 100.801 30.6435 101.954C29.8247 102.119 29.0096 102.295 28.1982 102.479C28.1872 102.482 27.3096 102.684 27.3096 102.684C24.8313 103.364 22.7054 104.898 21.2809 106.954C20.1941 108.515 19.5111 110.373 19.3716 112.381C19.3716 112.385 19.4193 114.415 19.4193 114.419C19.7424 124.064 21.6076 133.313 24.7689 141.938C24.7726 141.941 25.5326 144.306 26.1127 145.378C26.1127 145.378 26.1127 145.385 26.1163 145.385C28.0917 149.013 31.5283 151.734 35.6369 152.747C35.6406 152.747 35.6479 152.747 35.6516 152.747C36.0702 152.853 36.4997 152.938 36.933 153.004C36.9403 153.008 36.9476 153.008 36.955 153.008C44.5149 154.484 52.3244 155.258 60.3175 155.258L67.0329 155.071C78.5985 154.083 88.3026 146.579 92.4516 136.243C93.5494 133.519 94.515 127.545 94.515 127.541C95.253 123.539 95.9029 119.431 96.0828 115.26C96.0828 115.26 96.0681 114.107 96.0681 113.501V113.505Z" fill="white"/>
<path d="M157.931 90.9865C157.803 90.9902 157.674 90.9939 157.549 90.9975H156.731L157.931 90.9865ZM61.6943 90.9828C61.9476 90.9865 62.201 90.9902 62.4543 90.9975H63.2694L61.6943 90.9828ZM220 104.924C220 108.805 217.702 112.253 214.496 113.953C213.681 114.316 213.046 115.01 212.76 115.865L206.558 138.038C203.239 152.552 190.62 163.523 175.302 164.342L163.266 185.186C163.266 185.186 163.259 185.193 163.259 185.2L162.638 186.276C162.638 186.276 162.631 186.287 162.627 186.291C161.684 187.543 160.189 188.351 158.5 188.351H61.4519C59.6932 188.351 58.1402 187.473 57.2113 186.129L56.778 185.38L44.6323 164.338C29.3436 163.494 16.7537 152.534 13.4419 138.038L7.24047 115.865C6.95042 115.01 6.31519 114.316 5.50376 113.953C2.29476 112.253 0 108.805 0 104.924C0 100.474 2.85653 96.6004 6.84759 95.2383C9.05423 94.5957 11.3086 94.0192 13.6034 93.5125C10.0346 82.4389 11.628 69.871 19.0043 59.7483C25.6977 50.5619 35.7616 45.2858 46.2661 44.3826C45.5391 38.765 46.8719 32.8721 50.4518 27.919C56.7413 19.2173 67.9654 16.1955 77.5227 19.9186C83.6139 8.08858 95.9469 0 110.171 0C124.395 0 136.757 8.11066 142.841 19.9663C152.424 16.1699 163.718 19.1806 170.037 27.919C173.616 32.8721 174.949 38.765 174.222 44.3826C184.727 45.2858 194.791 50.5619 201.484 59.7483C208.882 69.904 210.465 82.516 206.852 93.6153C208.989 94.0963 211.093 94.6398 213.152 95.2383C217.14 96.6004 220 100.474 220 104.924ZM23.9133 91.7502C28.1393 91.2325 32.4278 90.9608 36.7162 90.9608L36.7016 90.9975H62.4543C76.3661 91.3573 89.606 94.4084 101.678 99.6515C104.259 98.9979 107.182 98.6785 109.965 98.6785C112.748 98.6785 115.711 98.9356 118.366 99.6332C130.423 94.4011 143.652 91.3573 157.549 90.9975H183.298L183.284 90.9608C187.73 90.9608 192.176 91.2545 196.553 91.8089C199.788 83.4266 198.833 73.6234 193.149 65.8175C187.436 57.9749 178.334 54.0573 169.324 54.6117C168.48 54.9679 167.544 55.078 166.626 54.9165C164.055 55.3314 161.518 56.1208 159.102 57.2957C158.831 57.4279 158.559 57.5637 158.291 57.7105C158.28 57.7105 158.276 57.7142 158.273 57.7179C156.125 58.566 153.591 57.8979 152.17 55.9482C150.485 53.6351 150.996 50.393 153.309 48.7077C153.378 48.6563 153.448 48.6086 153.522 48.5609H153.529C153.863 48.3773 154.201 48.2084 154.535 48.0469C157.751 46.4754 161.122 45.3996 164.54 44.8048C165.502 41.023 164.838 36.8668 162.378 33.4595C158.588 28.2091 151.759 26.4614 146.039 28.881C146.131 29.2922 146.211 29.7071 146.288 30.1257C146.369 30.5736 146.443 31.0252 146.505 31.4805C146.509 31.5209 146.509 31.5613 146.509 31.6017C146.509 34.3884 144.247 36.6502 141.46 36.6502C139.041 36.6502 137.018 34.9428 136.526 32.6701C136.5 32.4902 136.471 32.3103 136.441 32.134C136.441 32.1267 136.441 32.1193 136.441 32.1157C134.268 19.5771 123.337 10.0456 110.178 10.0456C97.019 10.0456 86.1767 19.5 83.9406 31.9652C83.8892 32.2552 83.8415 32.5489 83.8011 32.8426C83.8011 32.85 83.8011 32.8537 83.8011 32.861C83.2394 35.0383 81.2604 36.6502 78.9105 36.6502C76.1238 36.6502 73.8621 34.3884 73.8621 31.6017C73.8621 31.5172 73.8657 31.4365 73.8694 31.352V31.341C73.9208 30.9775 73.9795 30.614 74.0456 30.2578C74.1301 29.7768 74.2256 29.2959 74.3284 28.8222C68.6373 26.4908 61.8852 28.2532 58.1255 33.4595C55.6655 36.8668 55.0009 41.023 55.9629 44.8048C59.3812 45.3996 62.7517 46.4754 65.9681 48.0469C66.3022 48.2084 66.64 48.3773 66.9741 48.5572H66.9814C67.0549 48.6086 67.1246 48.6563 67.1944 48.7077C69.5075 50.393 70.0179 53.6351 68.3326 55.9482C66.9117 57.8979 64.3782 58.566 62.2303 57.7179C62.2303 57.7142 62.223 57.7105 62.212 57.7105C61.944 57.5637 61.6723 57.4279 61.4006 57.2957C58.9847 56.1208 56.4475 55.3314 53.8774 54.9165C52.9595 55.078 52.0232 54.9679 51.1788 54.6117C42.1649 54.0573 33.063 57.9749 27.3499 65.8175C21.6809 73.605 20.7153 83.3789 23.9243 91.7502H23.9133ZM36.9549 153.011C44.5148 154.487 52.3243 155.262 60.3174 155.262L67.0328 155.075C78.5985 154.087 88.3026 146.582 92.4515 136.247C93.5493 133.522 94.5149 127.549 94.5149 127.545C95.2529 123.543 95.9028 119.434 96.0827 115.263C96.0827 115.263 96.068 114.11 96.068 113.505C96.068 113.075 95.9799 112.223 95.9799 112.223C95.3557 107.652 91.2252 105.284 86.2024 103.962C76.4909 101.458 65.5642 99.49 55.0743 99.49C52.6731 99.49 50.2865 99.5597 47.9184 99.6993C42.0364 100.041 36.2683 100.801 30.6434 101.954C29.8246 102.119 29.0095 102.295 28.1981 102.479C28.1871 102.482 27.3095 102.684 27.3095 102.684C24.8312 103.363 22.7053 104.898 21.2808 106.954C20.194 108.515 19.511 110.373 19.3715 112.381C19.3715 112.385 19.4192 114.415 19.4192 114.419C19.7423 124.064 21.6075 133.313 24.7688 141.938C24.7688 141.941 25.5325 144.306 26.1126 145.378C26.1126 145.382 26.1126 145.385 26.1163 145.385C28.0916 149.013 31.5282 151.733 35.6368 152.747C35.6405 152.747 35.6478 152.751 35.6515 152.751C36.0701 152.857 36.4996 152.941 36.9329 153.008C36.9402 153.011 36.9475 153.011 36.9549 153.011ZM163.347 164.393H151.822C136.684 164.393 123.752 154.032 119.375 140.348L112.539 115.862C111.687 115.796 110.835 115.759 109.965 115.759C109.095 115.759 108.39 115.821 107.527 115.891L100.625 140.348C96.2443 154.032 83.3165 164.393 68.1784 164.393H56.5834L62.726 175.034C62.726 175.034 62.726 175.041 62.7334 175.045L63.185 175.823C63.185 175.823 63.185 175.83 63.1923 175.834C64.1249 177.16 65.667 178.026 67.411 178.026H152.501C154.326 178.026 155.93 177.079 156.848 175.647L157.065 175.272C157.065 175.272 157.072 175.265 157.072 175.261L163.347 164.393ZM200.629 112.381C200.5 110.505 199.894 108.761 198.929 107.267C197.684 105.332 195.833 103.819 193.649 102.996C193.337 102.879 193.017 102.776 192.694 102.684C192.694 102.684 191.817 102.482 191.806 102.479C191.137 102.328 190.465 102.181 189.794 102.045C184.033 100.841 178.118 100.048 172.085 99.6993C169.717 99.5597 167.331 99.49 164.929 99.49C154.439 99.49 143.513 101.458 133.801 103.962C128.779 105.284 124.648 107.652 124.024 112.223C124.024 112.223 123.936 113.075 123.936 113.505C123.936 114.11 123.921 115.263 123.921 115.263C124.101 119.434 124.751 123.543 125.489 127.545C125.489 127.545 126.454 133.522 127.552 136.243C131.701 146.582 141.405 154.087 152.971 155.075L159.686 155.262C167.679 155.262 175.489 154.487 183.049 153.011C183.056 153.011 183.063 153.011 183.071 153.008C183.504 152.941 183.934 152.857 184.352 152.751C184.352 152.751 184.363 152.747 184.367 152.747C188.475 151.733 191.912 149.013 193.887 145.385C193.891 145.385 193.891 145.382 193.891 145.378C194.471 144.306 195.231 141.941 195.235 141.938C198.396 133.313 200.261 124.064 200.584 114.419C200.584 114.415 200.632 112.385 200.632 112.381H200.629ZM62.4433 134.723L62.4323 134.73L61.977 135.013C61.3235 135.461 60.7654 136.074 60.3688 136.819C59.2563 138.901 59.7153 141.402 61.3308 142.958C61.3345 142.958 61.3308 142.962 61.3382 142.962V142.966C61.999 143.421 62.6967 143.832 63.42 144.188C64.6426 144.563 65.9424 144.46 67.0659 143.942L67.0843 143.931L68.1784 143.248H68.1821L83.6286 133.599L85.3542 132.516H85.3579L85.3652 132.509H85.3726L85.391 132.498C85.6039 132.41 85.8132 132.3 86.0114 132.175C86.0445 132.156 86.0812 132.134 86.1106 132.112C86.1693 132.079 86.2244 132.043 86.2831 131.995C86.3419 131.962 86.3933 131.921 86.4484 131.874C86.5182 131.822 86.5842 131.767 86.6503 131.708H86.654L86.6613 131.701H86.665C86.6944 131.675 86.7237 131.65 86.7494 131.624C86.8082 131.573 86.8633 131.521 86.922 131.466C86.9807 131.411 87.0322 131.36 87.0836 131.301C87.135 131.246 87.1864 131.187 87.2378 131.128C87.3443 131.007 87.4434 130.875 87.5388 130.743C87.5756 130.691 87.6123 130.633 87.6453 130.581C87.6967 130.512 87.7445 130.438 87.7849 130.361C87.8216 130.299 87.8546 130.232 87.8876 130.166C88.0382 129.884 88.1557 129.594 88.2438 129.3C88.2915 129.149 88.3282 128.992 88.3613 128.837C88.376 128.76 88.3943 128.679 88.4053 128.602C88.4164 128.544 88.4237 128.481 88.4311 128.422C88.4347 128.364 88.4421 128.301 88.4457 128.239C88.4457 128.165 88.4457 128.088 88.4421 128.015C88.4237 127.548 88.387 127.093 88.3393 126.638C88.3393 126.638 88.3393 126.616 88.3356 126.605C88.3209 126.528 88.2989 126.458 88.2805 126.385C88.2548 126.285 88.2218 126.19 88.1887 126.095C88.174 126.05 88.1594 125.999 88.1373 125.955C88.0823 125.801 88.0125 125.647 87.939 125.496C87.906 125.426 87.8693 125.357 87.8326 125.287C87.7959 125.217 87.7555 125.155 87.7114 125.085C87.6857 125.041 87.6563 124.993 87.6233 124.945C87.6049 124.92 87.5902 124.89 87.5682 124.865C87.5278 124.806 87.4911 124.754 87.4507 124.699C87.3589 124.571 87.2598 124.453 87.1533 124.34C87.1019 124.281 87.0505 124.226 86.9955 124.171C86.8743 124.046 86.7494 123.928 86.6173 123.818C86.5732 123.778 86.5218 123.741 86.4777 123.708C86.3749 123.627 86.2721 123.55 86.162 123.477C86.0775 123.418 85.9894 123.367 85.9013 123.311C85.9013 123.311 85.894 123.311 85.8903 123.308C85.8389 123.275 85.7838 123.245 85.7287 123.223C85.714 123.212 85.6993 123.201 85.6847 123.198C85.6516 123.179 85.6186 123.165 85.5819 123.146C85.5488 123.128 85.5195 123.113 85.4827 123.095C85.4534 123.08 85.424 123.069 85.3983 123.054C85.3983 123.051 85.391 123.051 85.3873 123.051L67.0181 114.11H67.0071L66.1406 113.688H66.1296C64.694 113.152 63.0454 113.262 61.6466 114.114C61.5841 114.151 61.5254 114.191 61.463 114.232C59.0911 115.818 58.4559 119.019 60.0421 121.391C60.4716 122.034 61.0187 122.548 61.6392 122.922L61.6613 122.933L62.5204 123.352H62.5351L65.2558 124.677L72.7092 128.297L65.3733 132.88L62.4213 134.723H62.4433ZM157.582 123.355H157.597L158.456 122.933L158.478 122.922C159.099 122.548 159.646 122.034 160.075 121.391C161.662 119.019 161.026 115.814 158.655 114.232C158.592 114.191 158.533 114.151 158.471 114.114C157.072 113.262 155.423 113.148 153.988 113.684H153.977L153.11 114.107H153.099L134.73 123.051C134.727 123.051 134.723 123.051 134.719 123.054C134.69 123.069 134.66 123.08 134.635 123.095C134.598 123.113 134.569 123.128 134.536 123.146C134.499 123.165 134.466 123.179 134.433 123.198C134.418 123.201 134.403 123.212 134.389 123.223C134.334 123.245 134.282 123.275 134.227 123.308C134.227 123.311 134.22 123.311 134.216 123.311C134.128 123.367 134.04 123.418 133.956 123.477C133.845 123.55 133.739 123.627 133.64 123.708C133.596 123.745 133.544 123.781 133.5 123.818C133.368 123.925 133.243 124.046 133.122 124.171C133.067 124.226 133.016 124.281 132.964 124.34C132.858 124.453 132.759 124.575 132.667 124.699C132.626 124.754 132.59 124.806 132.549 124.865C132.527 124.89 132.513 124.92 132.494 124.945C132.465 124.993 132.435 125.037 132.406 125.085C132.362 125.155 132.322 125.221 132.285 125.287C132.245 125.357 132.208 125.426 132.178 125.496C132.105 125.643 132.035 125.801 131.98 125.955C131.962 125.999 131.947 126.05 131.929 126.095C131.896 126.19 131.863 126.285 131.837 126.385C131.815 126.458 131.793 126.528 131.782 126.601C131.782 126.601 131.775 126.623 131.778 126.634C131.73 127.09 131.694 127.548 131.675 128.015C131.675 128.088 131.672 128.165 131.672 128.239C131.675 128.301 131.683 128.364 131.686 128.422C131.694 128.481 131.701 128.544 131.712 128.602C131.723 128.683 131.742 128.764 131.756 128.837C131.789 128.995 131.826 129.149 131.874 129.3C131.962 129.597 132.079 129.887 132.23 130.166C132.263 130.232 132.296 130.299 132.333 130.361C132.373 130.434 132.421 130.512 132.472 130.581C132.505 130.633 132.542 130.691 132.579 130.743C132.67 130.875 132.773 131.007 132.88 131.128C132.931 131.187 132.983 131.246 133.034 131.301C133.085 131.36 133.137 131.411 133.195 131.466C133.254 131.521 133.309 131.573 133.368 131.624C133.394 131.653 133.423 131.675 133.452 131.705H133.456L133.463 131.712H133.467C133.533 131.771 133.599 131.826 133.669 131.877C133.724 131.925 133.779 131.965 133.834 131.999C133.893 132.046 133.952 132.083 134.007 132.116C134.036 132.138 134.073 132.16 134.106 132.178C134.304 132.307 134.514 132.413 134.727 132.502L134.745 132.513H134.749H134.756H134.763L134.767 132.52L136.493 133.603L151.939 143.248H151.943L153.037 143.935L153.055 143.946C154.182 144.464 155.479 144.566 156.701 144.196C157.425 143.836 158.118 143.425 158.783 142.969C158.783 142.969 158.787 142.969 158.783 142.966C158.783 142.966 158.783 142.962 158.79 142.962C160.406 141.405 160.865 138.905 159.752 136.823C159.356 136.074 158.798 135.465 158.144 135.017L157.689 134.734L157.678 134.727L154.726 132.883L147.39 128.301L154.843 124.681L157.564 123.359L157.582 123.355Z" fill="#212322"/>
</svg>
