<svg width="200" height="43" viewBox="0 0 200 43" fill="none" 
xmlns="http://www.w3.org/2000/svg">
<path d="M42.1533 10.0557V32.1728C42.1537 34.6479 41.2415 37.0342 39.5915 
38.8777C37.9414 40.7213 35.6694 41.8905 33.2106 
42.1619H2.35959e-06V10.0557C-0.00090233 8.73621 0.258352 7.42869 0.762946 
6.20822C1.26752 4.98945 2.00766 3.87992 2.94086 2.94622C3.87405 2.01251 
4.98221 1.27168 6.20184 0.766424C7.42146 0.261163 8.72865 0 10.0488 
0H32.1045C33.4248 0 34.732 0.261163 35.9516 0.766424C37.1712 1.27168 
38.2794 2.01251 39.2126 2.94622C40.1458 3.87992 40.8857 4.98945 41.3905 
6.20822C41.8951 7.42869 42.1544 8.73621 42.1533 10.0557Z" fill="#2CD5C4"/>
<path d="M23.4381 36.8207C23.4381 36.9913 23.3705 37.1535 23.2505 
37.273C23.1305 37.3942 22.9677 37.4608 22.798 37.4608H19.4131C19.2433 
37.4608 19.0804 37.3942 18.9604 37.273C18.8404 37.1535 18.773 36.9913 
18.773 36.8207C18.773 36.6517 18.8404 36.4878 18.9604 36.3683C19.0804 
36.2488 19.2433 36.1805 19.4131 36.1805H22.798C22.9677 36.1805 23.1305 
36.2488 23.2505 36.3683C23.3705 36.4878 23.4381 36.6517 23.4381 
36.8207ZM25.1348 33.3043H17.0763C16.9894 33.3009 16.9027 33.3128 16.8213 
33.3436C16.7398 33.3743 16.6654 33.4204 16.6024 33.4801C16.5394 33.5399 
16.4893 33.6116 16.4549 33.6918C16.4208 33.772 16.4031 33.8574 16.4031 
33.9444C16.4031 34.0315 16.4208 34.1168 16.4549 34.1971C16.4893 34.2773 
16.5394 34.349 16.6024 34.4087C16.6654 34.4685 16.7398 34.5146 16.8213 
34.5453C16.9027 34.5743 16.9894 34.5879 17.0763 34.5828H25.1348C25.2216 
34.5879 25.3083 34.5743 25.3897 34.5453C25.4711 34.5146 25.5457 34.4685 
25.6085 34.4087C25.6715 34.349 25.7217 34.2773 25.756 34.1971C25.7903 
34.1168 25.8079 34.0315 25.8079 33.9444C25.8079 33.8574 25.7903 33.772 
25.756 33.6918C25.7217 33.6116 25.6715 33.5399 25.6085 33.4801C25.5457 
33.4204 25.4711 33.3743 25.3897 33.3436C25.3083 33.3128 25.2216 33.3009 
25.1348 33.3043ZM25.1348 30.4605H17.0763C16.9894 30.4571 16.9027 30.469 
16.8213 30.4998C16.7398 30.5305 16.6654 30.5766 16.6024 30.6363C16.5394 
30.6961 16.4893 30.7678 16.4549 30.848C16.4208 30.9282 16.4031 31.0136 
16.4031 31.1006C16.4031 31.1877 16.4208 31.273 16.4549 31.3533C16.4893 
31.4335 16.5394 31.5052 16.6024 31.5649C16.6654 31.6247 16.7398 31.6708 
16.8213 31.7015C16.9027 31.7305 16.9894 31.7441 17.0763 
31.739H25.1348C25.2216 31.7441 25.3083 31.7305 25.3897 31.7015C25.4711 
31.6708 25.5457 31.6247 25.6085 31.5649C25.6715 31.5052 25.7217 31.4335 
25.756 31.3533C25.7903 31.273 25.8079 31.1877 25.8079 31.1006C25.8079 
31.0136 25.7903 30.9282 25.756 30.848C25.7217 30.7678 25.6715 30.6961 
25.6085 30.6363C25.5457 30.5766 25.4711 30.5305 25.3897 30.4998C25.3083 
30.469 25.2216 30.4571 25.1348 30.4605ZM34.2125 16.885C33.9434 16.8151 
33.6703 16.7622 33.3948 16.7246C33.6282 16.0367 33.7016 15.3027 33.6096 
14.5807C33.5177 13.8586 33.2627 13.1673 32.864 12.5596C32.4654 11.9502 
31.9333 11.4416 31.3084 11.0694C30.6835 10.6956 29.9821 10.4703 29.2572 
10.4088C29.3217 9.90188 29.2529 9.38638 29.0573 8.91355C28.8618 8.44072 
28.5464 8.02763 28.1422 7.71355C27.738 7.40118 27.259 7.19806 26.7525 
7.12637C26.2461 7.05467 25.7297 7.11611 25.2543 7.30388C24.8616 6.53916 
24.2658 5.89905 23.5323 5.45012C22.799 5.00289 21.9563 4.76562 21.097 
4.76562C20.2376 4.76562 19.3948 5.00289 18.6615 5.45012C17.9281 5.89905 
17.3323 6.53916 16.9397 7.30388C16.4654 7.12123 15.9516 7.06491 15.4485 
7.1383C14.9457 7.21341 14.4706 7.41824 14.0702 7.73062C13.6695 8.0447 
13.357 8.45607 13.1632 8.92549C12.9693 9.39661 12.9007 9.90871 12.9642 
10.4123C12.2405 10.4737 11.5401 10.699 10.9162 11.0711C10.2921 11.4433 
9.76076 11.9519 9.36201 12.5579C8.96326 13.1656 8.70739 13.8552 8.61419 
14.5755C8.52082 15.2959 8.59217 16.0282 8.82312 16.7161C8.52782 16.7553 
8.23542 16.8117 7.94745 16.8868C7.69209 16.9772 7.47104 17.1428 7.31468 
17.3647C7.1585 17.5849 7.07469 17.8495 7.0752 18.1192C7.07759 18.3565 
7.14382 18.5886 7.26706 18.7917C7.39013 18.9932 7.56561 19.1587 7.77505 
19.2697C7.8266 19.2936 7.87286 19.326 7.91093 19.3687C7.94916 19.4097 
7.97835 19.4591 7.99696 19.5121L8.78557 22.3354C8.9957 23.2486 9.49652 
24.0679 10.2124 24.6722C10.9285 25.2748 11.8209 25.6298 12.756 
25.6827L14.3025 28.361L14.3571 28.4565C14.4175 28.5453 14.4983 28.617 
14.5925 28.6648C14.6869 28.7143 14.7917 28.7399 14.8982 
28.7399H27.2515C27.3535 28.7399 27.4543 28.7177 27.5454 28.6716C27.6367 
28.6255 27.7161 28.559 27.7772 28.477L27.8557 28.3405L29.392 
25.6861C30.3284 25.6349 31.2231 25.2816 31.9408 24.6773C32.6584 24.0748 
33.1605 23.2537 33.3709 22.3388L34.1613 19.5155C34.179 19.4626 34.2079 
19.4131 34.2457 19.3721C34.2836 19.3294 34.3299 19.297 34.3814 
19.2731C34.5909 19.1621 34.7667 18.9966 34.8901 18.7951C35.0135 18.592 
35.0801 18.3599 35.083 18.1226C35.0842 17.8512 35.0012 17.5866 34.8452 
17.3647C34.6892 17.1428 34.468 16.9755 34.2125 16.885ZM10.5591 
13.1434C10.9048 12.6689 11.3655 12.2882 11.898 12.039C12.4306 11.7898 
13.0176 11.6788 13.6043 11.7181L13.9252 11.7539C14.2608 11.8086 14.587 
11.911 14.8931 12.0578L14.9972 12.1107C15.1462 12.1687 15.3115 12.1704 
15.4617 12.1158C15.6121 12.0612 15.7375 11.9536 15.8147 11.8137C15.8918 
11.6737 15.9155 11.5098 15.8812 11.3545C15.8471 11.1975 15.7573 11.0592 
15.6288 10.9636L15.6015 10.9448C15.5588 10.9209 15.5161 10.9005 15.4734 
10.88C15.0704 10.6837 14.6418 10.5454 14.2001 10.4686C14.1203 10.1579 
14.1289 9.83018 14.2245 9.52292C14.3201 9.21738 14.4989 8.94258 14.7413 
8.73091C14.9837 8.52096 15.2799 8.38097 15.597 8.32805C15.914 8.27684 
16.2394 8.31269 16.5369 8.43388C16.5249 8.49533 16.5113 8.55509 16.501 
8.61654C16.4908 8.67799 16.4857 8.7087 16.4788 8.75479C16.4788 8.76503 
16.4788 8.77528 16.4788 8.78553C16.4788 8.94257 16.5362 9.09448 16.6396 
9.21056C16.7433 9.32834 16.8861 9.40344 17.0415 9.42393C17.1968 9.4427 
17.3538 9.40515 17.4834 9.3181C17.6131 9.22934 17.7061 9.09789 17.7454 
8.94597C17.7454 8.90842 17.7557 8.87088 17.7625 8.83333C17.905 8.04983 
18.3188 7.34145 18.9314 6.83106C19.5439 6.32068 20.3163 6.04414 21.1132 
6.04585C21.9101 6.04755 22.6807 6.33092 23.2903 6.84471C23.8997 7.35851 
24.3092 8.06861 24.4469 8.85381L24.4572 8.92209C24.4915 9.07743 24.5814 
9.21398 24.7101 9.30616C24.8387 9.39833 24.9966 9.43929 25.154 
9.42222C25.3113 9.40515 25.4569 9.33176 25.5629 9.21398C25.669 9.09619 
25.728 8.94427 25.7289 8.78553C25.7295 8.78041 25.7295 8.77529 25.7289 
8.77017C25.7289 8.71213 25.7118 8.6558 25.7016 8.59947C25.6913 8.54314 
25.6811 8.49363 25.6691 8.44072C25.9666 8.31611 26.2934 8.27684 26.6124 
8.32634C26.9314 8.37755 27.23 8.51583 27.4747 8.72579C27.7195 8.93574 
27.9006 9.21057 27.9978 9.51953C28.0949 9.82678 28.1043 10.1562 28.0247 
10.4686C27.583 10.5454 27.1542 10.6837 26.7513 10.88C26.7087 10.9005 
26.666 10.9209 26.6233 10.9448L26.596 10.9636C26.4673 11.0592 26.3775 
11.1975 26.3434 11.3545C26.3091 11.5098 26.3328 11.6737 26.4099 
11.8137C26.4871 11.9536 26.6126 12.0612 26.7629 12.1158C26.9133 12.1704 
27.0784 12.1687 27.2276 12.1107L27.3317 12.0578C27.6378 11.911 27.9638 
11.8086 28.2995 11.7539L28.6188 11.7181C29.214 11.6788 29.8095 11.7932 
30.3482 12.0492C30.887 12.3053 31.3507 12.6962 31.695 13.1844C32.0395 
13.6709 32.2529 14.2393 32.315 14.8316C32.3771 15.4256 32.2858 16.0247 
32.0497 16.5727C30.3957 16.4173 28.4532 16.332 28.0776 16.3491C26.5704 
16.4173 23.7829 16.7383 22.146 17.4484C21.7962 17.363 21.4372 17.322 
21.0774 17.3272C20.722 17.3255 20.3678 17.3664 20.0225 17.4501C18.3821 
16.7383 15.5929 16.4173 14.0857 16.3491C13.7136 16.332 11.812 16.4139 
10.1716 16.5658C9.93384 16.0111 9.84457 15.4034 9.91251 14.8043C9.98044 
14.2034 10.2032 13.6316 10.5591 13.1434ZM11.783 24.2386L11.6123 
24.2062C11.3563 24.143 11.1164 24.027 10.9078 23.8648C10.6992 23.7044 
10.5263 23.5012 10.4004 23.2691C10.3341 23.1274 10.2771 22.9823 10.2297 
22.8321C9.81692 21.7089 9.58631 20.526 9.54688 19.3277V19.0683C9.56685 
18.7832 9.6749 18.5118 9.85584 18.2916C10.0368 18.0697 10.2819 17.9109 
10.5574 17.8341L10.6701 17.8085C10.7725 17.7846 10.8766 17.7624 10.9807 
17.7419C11.7057 17.5934 12.4403 17.4979 13.1793 17.4552C13.4814 17.4364 
13.7853 17.4279 14.0908 17.4279C15.4297 17.4552 16.7605 17.6464 18.0527 
17.998C18.6928 18.1687 19.2185 18.4674 19.2987 19.0495C19.2987 19.0495 
19.309 19.157 19.309 19.2116C19.309 19.2663 19.309 19.4353 19.309 
19.4353C19.2789 19.9593 19.2122 20.4816 19.1093 20.9954C19.0509 21.371 
18.9637 21.7414 18.8481 22.1032C18.5813 22.7638 18.137 23.3357 17.5643 
23.7573C16.9918 24.1789 16.3134 24.4332 15.6049 24.493L14.7514 
24.5169C13.7552 24.5203 12.7611 24.4281 11.783 24.2386ZM27.0739 
27.0722L27.0466 27.12C26.9869 27.2139 26.9051 27.289 26.8085 
27.3419C26.7119 27.3948 26.6035 27.4221 26.4936 27.4221H15.6595C15.5544 
27.4221 15.4507 27.3965 15.3575 27.3487C15.2642 27.3009 15.1839 27.231 
15.1235 27.1439L15.0655 27.0449L14.2837 25.6896H15.7585C16.6813 25.6793 
17.5769 25.3772 18.3184 24.8275C19.0599 24.2779 19.6096 23.5098 19.8894 
22.629L20.7684 19.5155C20.8777 19.5155 20.9664 19.4984 21.0791 
19.4984C21.1918 19.4984 21.2976 19.4984 21.4068 19.5121L22.2757 
22.629C22.5553 23.5098 23.1049 24.2779 23.8464 24.8275C24.5879 25.3772 
25.4837 25.6793 26.4065 25.6896H27.8745L27.0739 27.0722ZM32.6113 
19.326C32.5717 20.5243 32.3411 21.7072 31.9285 22.8304C31.8809 22.9806 
31.8239 23.1257 31.7578 23.2674C31.6315 23.4995 31.4586 23.7027 31.25 
23.8631C31.0414 24.0253 30.8016 24.1413 30.5459 24.2045L30.3752 
24.2369C29.3951 24.4298 28.3986 24.5254 27.4 24.5237L26.5465 
24.4998C25.8376 24.4418 25.1589 24.1874 24.5864 23.7641C24.0137 23.3425 
23.5694 22.7706 23.3033 22.1101C23.1901 21.7465 23.1063 21.3744 23.0523 
20.9954C22.9499 20.4799 22.8832 19.9576 22.8526 19.4318C22.8526 19.4318 
22.8526 19.285 22.8526 19.2082C22.8526 19.1314 22.8646 19.0461 22.8646 
19.0461C22.9431 18.464 23.4688 18.1619 24.109 17.9946C25.401 17.6429 
26.7317 17.4518 28.0708 17.4245C28.3764 17.4245 28.6802 17.4245 28.9823 
17.4518C29.7409 17.4962 30.4952 17.5969 31.2389 17.7522L31.495 
17.8068L31.6076 17.8324C31.8828 17.9092 32.1277 18.068 32.3087 
18.2899C32.4896 18.5101 32.5977 18.7815 32.6182 19.0665L32.6113 
19.326ZM26.2478 20.0429C25.6932 20.0429 25.1589 20.2512 24.7509 
20.6267C24.343 21.0022 24.0912 21.5177 24.0458 22.0691C24.0374 22.1118 
24.0335 22.1544 24.0339 22.1971C24.032 22.2261 24.032 22.2551 24.0339 
22.2825C24.0547 22.4378 24.1301 22.5795 24.2464 22.6836C24.3628 22.7877 
24.5125 22.8475 24.6687 22.8526C24.8247 22.856 24.9773 22.8031 25.0987 
22.7058C25.22 22.6068 25.3025 22.4685 25.3311 22.3149V22.2688C25.3313 
22.2261 25.3342 22.1818 25.3397 22.1374C25.3711 21.924 25.4774 21.7277 
25.6396 21.586C25.8018 21.4426 26.0095 21.3624 26.2256 
21.3573H26.258C26.4741 21.3624 26.6817 21.4426 26.8439 21.586C27.006 
21.7277 27.1124 21.924 27.1439 22.1374C27.1501 22.1818 27.153 22.2261 
27.1525 22.2688V22.3149C27.181 22.4685 27.2634 22.6068 27.3848 
22.7058C27.5063 22.8031 27.6588 22.856 27.8149 22.8526C27.971 22.8475 
28.1207 22.7877 28.2371 22.6836C28.3533 22.5795 28.4288 22.4378 28.4498 
22.2825V22.25C28.4498 22.1903 28.4498 22.1288 28.4498 22.0691C28.4042 
21.5177 28.1524 21.0022 27.7444 20.6267C27.3365 20.2512 26.8022 20.0429 
26.2478 20.0429ZM16.0487 23.1155C16.2904 23.1155 16.5222 23.0199 16.6932 
22.8492C16.8641 22.6785 16.9602 22.4463 16.9602 22.2039V20.6216C16.9655 
20.4987 16.9459 20.3758 16.9025 20.2614C16.8592 20.1471 16.7929 20.0412 
16.7077 19.9525C16.6227 19.8637 16.5205 19.792 16.4073 19.7442C16.2943 
19.6964 16.1724 19.6708 16.0495 19.6708C15.9265 19.6708 15.8048 19.6964 
15.6916 19.7442C15.5784 19.792 15.4762 19.8637 15.3912 19.9525C15.306 
20.0412 15.2398 20.1471 15.1964 20.2614C15.153 20.3758 15.1334 20.4987 
15.1389 20.6216V22.2039C15.1385 22.3234 15.1619 22.4429 15.2075 
22.5539C15.2531 22.6648 15.3202 22.7655 15.4047 22.8492C15.489 22.9345 
15.5893 23.0011 15.7 23.0472C15.8104 23.0933 15.9289 23.1172 16.0487 
23.1172V23.1155Z" fill="#212322"/>
<path d="M19.3073 19.2115C19.3073 19.1569 19.297 19.0493 19.297 
19.0493C19.2168 18.4673 18.6911 18.1651 18.051 17.9979C16.7588 17.6462 
15.428 17.455 14.0891 17.4277C13.7836 17.4277 13.4797 17.4277 13.1776 
17.4551C12.3328 17.5046 11.4935 17.6223 10.6684 17.8084L10.5557 
17.834C10.2809 17.9108 10.0364 18.0696 9.85635 18.2915C9.67627 18.5117 
9.56924 18.7848 9.55029 19.0681V19.3276C9.58972 20.5259 9.82033 21.7088 
10.2331 22.832C10.2805 22.9822 10.3375 23.1273 10.4038 23.2689C10.5297 
23.5011 10.7027 23.7042 10.9113 23.8647C11.1198 24.0268 11.3597 24.1429 
11.6157 24.2061C11.6686 24.2197 11.7233 24.23 11.7864 24.2385C12.7659 
24.4314 13.7617 24.527 14.7599 24.5253L15.6134 24.5014C16.322 24.4416 
17.0003 24.1873 17.5728 23.7657C18.1455 23.3441 18.5898 22.7722 18.8566 
22.1116C18.9696 21.748 19.0541 21.3742 19.1093 20.997C19.2124 20.4815 
19.2791 19.9592 19.309 19.4334C19.309 19.4334 19.3073 19.29 19.3073 
19.2115ZM16.9602 22.2072C16.9655 22.3301 16.9459 22.453 16.9025 
22.5691C16.8592 22.6835 16.7929 22.7893 16.7078 22.8781C16.6227 22.9668 
16.5205 23.0368 16.4073 23.0863C16.2943 23.1341 16.1724 23.158 16.0495 
23.158C15.9265 23.158 15.8048 23.1341 15.6916 23.0863C15.5784 23.0368 
15.4762 22.9668 15.3912 22.8781C15.306 22.7893 15.2398 22.6835 15.1964 
22.5691C15.153 22.453 15.1334 22.3301 15.1389 22.2072V20.6249C15.1334 
20.502 15.153 20.3791 15.1964 20.2647C15.2398 20.1503 15.306 20.0445 
15.3912 19.9558C15.4762 19.867 15.5784 19.7953 15.6916 19.7475C15.8048 
19.6997 15.9265 19.6741 16.0495 19.6741C16.1724 19.6741 16.2943 19.6997 
16.4073 19.7475C16.5205 19.7953 16.6227 19.867 16.7078 19.9558C16.7929 
20.0445 16.8592 20.1503 16.9025 20.2647C16.9459 20.3791 16.9655 20.502 
16.9602 20.6249V22.2072ZM31.6076 17.834L31.495 17.8084C30.6692 17.6223 
29.8292 17.5046 28.984 17.4551C28.6819 17.4363 28.3781 17.4277 28.0725 
17.4277C26.7334 17.455 25.4027 17.6462 24.1107 17.9979C23.4706 18.1685 
22.9448 18.4673 22.8663 19.0493C22.8663 19.0493 22.8543 19.1569 22.8543 
19.2115C22.8543 19.2661 22.8543 19.4351 22.8543 19.4351C22.8844 19.9609 
22.9506 20.4815 23.0524 20.997C23.1106 21.3725 23.1985 21.7429 23.3152 
22.1048C23.5813 22.7654 24.0257 23.3372 24.5983 23.7588C25.1709 24.1822 
25.8496 24.4365 26.5585 24.4946L27.4119 24.5185C28.4062 24.5219 29.3987 
24.4297 30.3752 24.2402C30.4326 24.2334 30.4896 24.2214 30.5459 
24.2078C30.8016 24.1446 31.0414 24.0285 31.25 23.8664C31.4586 23.7059 
31.6315 23.5028 31.7579 23.2707C31.8239 23.129 31.8809 22.9839 31.9285 
22.8337C32.3411 21.7105 32.5717 20.5276 32.6113 19.3293V19.0698C32.592 
18.7865 32.4852 18.5151 32.3054 18.2932C32.1257 18.0712 31.8819 17.9125 
31.6076 17.834ZM28.4549 22.284C28.4339 22.4394 28.3584 22.5811 28.2422 
22.6852C28.1258 22.791 27.9761 22.849 27.8201 22.8542C27.6639 22.8576 
27.5114 22.8064 27.3899 22.7074C27.2685 22.6084 27.1861 22.4701 27.1576 
22.3165V22.2704C27.1581 22.2277 27.1552 22.1833 27.1491 22.1389C27.1175 
21.9256 27.0111 21.7293 26.849 21.5876C26.6868 21.4442 26.4792 21.364 
26.2631 21.3589H26.2307C26.0146 21.364 25.8069 21.4442 25.6447 
21.5876C25.4826 21.7293 25.3762 21.9256 25.3448 22.1389C25.3393 22.1833 
25.3364 22.2277 25.3363 22.2704V22.3165C25.3076 22.4701 25.2251 22.6084 
25.1038 22.7074C24.9824 22.8064 24.8298 22.8576 24.6738 22.8542C24.5176 
22.849 24.3679 22.791 24.2515 22.6852C24.1353 22.5811 24.0598 22.4394 
24.039 22.284C24.0371 22.2567 24.0371 22.2277 24.039 22.1987C24.0386 
22.156 24.0426 22.1133 24.0509 22.0707C24.097 21.5193 24.349 21.0038 
24.7566 20.63C25.1644 20.2545 25.698 20.0462 26.2521 20.0462C26.806 
20.0462 27.3397 20.2545 27.7473 20.63C28.155 21.0038 28.4069 21.5193 
28.4532 22.0707C28.4532 22.1304 28.4532 22.1919 28.4532 22.2516L28.4549 
22.284Z" fill="white"/>
<path d="M22.2736 22.6267L21.4048 19.5097C21.2955 19.5012 21.188 19.4961 
21.077 19.4961C20.9661 19.4961 20.8756 19.5046 20.7664 19.5132L19.8873 
22.6267C19.6077 23.5074 19.058 24.2756 18.3165 24.8252C17.575 25.3749 
16.6792 25.677 15.7564 25.6872H14.2816L15.0634 27.0426L15.1214 
27.1416C15.182 27.2286 15.2623 27.2986 15.3555 27.3464C15.4488 27.3942 
15.5524 27.4198 15.6574 27.4198H26.4898C26.5999 27.4198 26.7083 27.3925 
26.8049 27.3396C26.9015 27.2867 26.9833 27.2116 27.0429 27.1177L27.0702 
27.0699L27.869 25.6855H26.401C25.4791 25.6736 24.5843 25.3714 23.8435 
24.8235C23.1027 24.2739 22.5534 23.5057 22.2736 22.6267Z" fill="#FFD700"/>
<path d="M31.6658 13.1444C31.3195 12.6699 30.8584 12.2892 30.3257 
12.04C29.793 11.7908 29.2058 11.6799 28.6189 11.7191L28.2997 
11.755C27.9639 11.8096 27.6379 11.912 27.3319 12.0588L27.2277 
12.1117C27.0785 12.1698 26.9135 12.1715 26.7631 12.1168C26.6127 12.0622 
26.4873 11.9547 26.4101 11.8147C26.333 11.6747 26.3092 11.5109 26.3435 
11.3555C26.3777 11.1985 26.4675 11.0602 26.5962 10.9646L26.6235 
10.9459C26.6661 10.922 26.7088 10.9015 26.7515 10.881C27.1543 10.6847 
27.5831 10.5464 28.0249 10.4696C28.1044 10.1573 28.095 9.82782 27.9979 
9.52057C27.9008 9.21161 27.7197 8.93678 27.4749 8.72682C27.2301 8.51687 
26.9316 8.37859 26.6126 8.32738C26.2935 8.27788 25.9668 8.31715 25.6693 
8.44175C25.6812 8.49467 25.6915 8.54759 25.7017 8.60051C25.712 8.65343 
25.7222 8.71488 25.729 8.77121C25.7297 8.77633 25.7297 8.78144 25.729 
8.78656C25.7282 8.94531 25.6691 9.09723 25.5631 9.21501C25.4571 9.33279 
25.3115 9.40619 25.1541 9.42326C24.9967 9.44033 24.8388 9.39937 24.7103 
9.30719C24.5816 9.21502 24.4917 9.07846 24.4573 8.92313L24.4471 
8.85485C24.3093 8.06964 23.8998 7.35954 23.2905 6.84575C22.6809 6.33195 
21.9102 6.04859 21.1134 6.04688C20.3164 6.04518 19.544 6.32172 18.9316 
6.8321C18.3189 7.34248 17.9052 8.05087 17.7626 8.83436C17.7626 8.87192 
17.7507 8.90945 17.7456 8.94701C17.7063 9.09893 17.6133 9.23037 17.4836 
9.31913C17.354 9.40619 17.197 9.44374 17.0416 9.42497C16.8863 9.40448 
16.7434 9.32938 16.6398 9.2116C16.5364 9.09552 16.479 8.9436 16.479 
8.78656C16.479 8.77632 16.479 8.76607 16.479 8.75583C16.479 8.70974 
16.4927 8.66366 16.5012 8.61758C16.5097 8.57149 16.5251 8.49637 16.537 
8.43492C16.2395 8.31373 15.9142 8.27788 15.5972 8.32909C15.28 8.382 
14.9839 8.52199 14.7415 8.73195C14.4993 8.94361 14.3202 9.21842 14.2246 
9.52396C14.129 9.83121 14.1205 10.159 14.2002 10.4696C14.642 10.5464 
15.0706 10.6847 15.4736 10.881C15.5163 10.9015 15.559 10.922 15.6016 
10.9459L15.6289 10.9646C15.7575 11.0602 15.8473 11.1985 15.8814 
11.3555C15.9157 11.5109 15.892 11.6747 15.8148 11.8147C15.7377 11.9547 
15.6122 12.0622 15.4618 12.1168C15.3116 12.1715 15.1464 12.1698 14.9974 
12.1117L14.8932 12.0588C14.5872 11.912 14.261 11.8096 13.9254 
11.755L13.6045 11.7191C13.011 11.6816 12.4176 11.7959 11.881 
12.052C11.3441 12.308 10.8817 12.6972 10.5378 13.182C10.1936 13.6668 
9.97941 14.2318 9.9154 14.8224C9.85139 15.413 9.93964 16.0121 10.1718 
16.5584C11.8122 16.4064 13.7137 16.3245 14.0858 16.3416C15.5931 16.4099 
18.3823 16.7308 20.0227 17.4426C20.368 17.3589 20.7222 17.318 21.0776 
17.3197C21.4374 17.3145 21.7964 17.3555 22.1461 17.4408C23.7831 16.7308 
26.5706 16.4167 28.0778 16.3416C28.4533 16.3245 30.3959 16.4098 32.0499 
16.5652C32.2877 16.0104 32.3773 15.4045 32.31 14.8053C32.2428 14.2045 
32.0207 13.6326 31.6658 13.1444Z" fill="#FFD700"/>
<path d="M57.3254 28.4832C56.5504 29.1557 55.5262 29.4937 54.2529 
29.4937C53.4006 29.4937 52.7268 29.3657 52.2318 29.1096C51.9981 29.0004 
51.8025 28.8246 51.6699 28.6027C51.5372 28.3808 51.4738 28.1247 51.4876 
27.867C51.4814 27.6365 51.5251 27.4061 51.6156 27.1927C51.6905 27.0254 
51.7882 26.8701 51.9058 26.7284C52.1687 26.8069 52.4332 26.8769 52.6961 
26.9384C52.9762 27.0015 53.2626 27.0323 53.5496 27.0306C54.8196 27.0306 
55.4546 26.3734 55.4546 25.0573V15.0903C55.5945 15.0596 55.7959 15.0204 
56.0588 14.9743C56.3198 14.9282 56.5842 14.906 56.8491 14.9043C57.4056 
14.9043 57.817 15.005 58.0799 15.2064C58.3427 15.4079 58.4759 15.78 
58.4759 16.3211V25.3816C58.4839 26.7745 58.1003 27.8089 57.3254 28.4832Z" 
fill="#212322"/>
<path d="M72.7732 23.6858C72.7858 24.5137 72.6483 25.3382 72.367 
26.1166C72.1155 26.8062 71.7238 27.4343 71.2165 27.9635C70.7127 28.4807 
70.1022 28.8801 69.4276 29.1362C67.9103 29.679 66.2523 29.679 64.7351 
29.1362C64.0629 28.8801 63.453 28.4841 62.9462 27.9737C62.4374 27.4514 
62.0458 26.8249 61.7975 26.1387C61.2557 24.5581 61.2557 22.8426 61.7975 
21.2602C62.0472 20.5723 62.4432 19.9459 62.9582 19.4253C63.4706 18.9166 
64.0841 18.5223 64.759 18.2645C66.26 17.7217 67.9043 17.7217 69.4054 
18.2645C70.0822 18.524 70.696 18.9234 71.2062 19.4372C71.7187 19.9647 
72.1143 20.5945 72.367 21.2841C72.6464 22.054 72.7841 22.8682 72.7732 
23.6858ZM67.0754 20.178C66.6968 20.1627 66.32 20.2378 65.9764 
20.3982C65.6328 20.5587 65.3326 20.7977 65.1004 21.0964C64.6201 21.7109 
64.3801 22.5729 64.3801 23.6858C64.3801 24.8176 64.6162 25.6847 65.0885 
26.289C65.5606 26.8932 66.2229 27.1953 67.0754 27.1936C67.9265 27.1936 
68.5883 26.8881 69.0606 26.277C69.5327 25.6659 69.769 24.8022 69.769 
23.6858C69.769 22.5712 69.5293 21.7075 69.0503 21.0964C68.818 20.7977 
68.5176 20.5587 68.1741 20.3982C67.8305 20.2378 67.4538 20.1627 67.0754 
20.178Z" fill="#212322"/>
<path d="M83.6226 17.9482C83.9801 17.9363 84.3327 18.0336 84.6332 
18.2265C84.9029 18.4125 85.0394 18.7232 85.0394 19.1568C85.0189 19.4879 
84.9617 19.8139 84.8687 20.1314C84.7526 20.5821 84.5973 21.0993 84.4027 
21.6882C84.2081 22.2771 83.9896 22.9121 83.7421 23.5932C83.4946 24.2742 
83.23 24.9451 82.9757 25.6023C82.7214 26.2594 82.4482 26.8842 82.1854 
27.4799C81.9225 28.0756 81.6733 28.5638 81.465 28.9667C81.2563 29.1152 
81.0192 29.2176 80.7686 29.2688C80.4332 29.349 80.0892 29.3883 79.7444 
29.3849C79.354 29.3951 78.9647 29.3388 78.5939 29.2142C78.3015 29.1203 
78.0569 28.9155 77.9112 28.6441C77.7712 28.3812 77.6005 28.0176 77.3991 
27.5533C77.1976 27.0873 76.9826 26.5616 76.7487 25.9727C76.5149 25.3838 
76.2776 24.7607 76.0284 24.1035C75.7792 23.4464 75.5453 22.7909 75.32 
22.1405C75.0947 21.4902 74.8864 20.862 74.6935 20.2629C74.5006 19.6637 
74.3402 19.1175 74.2173 18.6378C74.3999 18.433 74.6261 18.2692 74.8796 
18.1616C75.1599 18.0319 75.4651 17.9636 75.774 17.9636C76.1243 17.9482 
76.4701 18.0472 76.7607 18.2418C77.0167 18.4296 77.2142 18.7625 77.353 
19.2421L78.512 23.0589C78.6042 23.3695 78.7083 23.6973 78.8244 
24.0455C78.9404 24.3937 79.0531 24.7283 79.1658 25.0697C79.2784 25.4111 
79.3774 25.72 79.4781 26.0222C79.5789 26.3243 79.6608 26.5769 79.7222 
26.7766H79.8161C80.2657 25.4111 80.7071 24.0062 81.1407 22.5604C81.5743 
21.1164 81.9498 19.6859 82.2673 18.2726C82.467 18.1599 82.683 18.078 
82.9074 18.0302C83.142 17.9756 83.382 17.9482 83.6226 17.9482Z" 
fill="#212322"/>
<path d="M89.6861 25.0113C89.9022 25.8017 90.3045 26.3752 90.8929 
26.7302C91.558 27.1075 92.3141 27.2918 93.0778 27.2645C93.6896 27.2713 
94.2981 27.174 94.877 26.9743C95.3443 26.8207 95.7927 26.6141 96.2135 
26.3581C96.4303 26.4844 96.6136 26.6585 96.7478 26.8702C96.8833 27.0784 
96.9557 27.3191 96.956 27.5666C96.9586 27.8722 96.8465 28.1658 96.642 
28.3911C96.4035 28.654 96.1128 28.8639 95.7885 29.0073C95.3773 29.1934 
94.9442 29.3265 94.4997 29.4016C93.9709 29.4989 93.4342 29.545 92.8969 
29.5416C92.0499 29.5518 91.2068 29.4272 90.3996 29.1695C89.681 28.9425 
89.0221 28.5567 88.4707 28.0429C87.9223 27.5188 87.4947 26.8804 87.2178 
26.1738C86.9005 25.3442 86.7469 24.4617 86.7655 23.5724C86.7467 22.7155 
86.8962 21.8637 87.2059 21.0631C87.474 20.3906 87.8812 19.7812 88.4007 
19.2742C88.9016 18.7963 89.5002 18.431 90.1555 18.2057C90.8351 17.9718 
91.5496 17.8523 92.2687 17.8557C92.9817 17.8489 93.6903 17.9701 94.3598 
18.2159C94.9635 18.4378 95.5167 18.7775 95.9865 19.2162C96.4405 19.6515 
96.8002 20.1738 97.0431 20.7524C97.3019 21.367 97.4321 22.0258 97.4255 
22.6916C97.4255 23.1251 97.3116 23.4512 97.0841 23.668C96.8221 23.9035 
96.4931 24.0486 96.1435 24.0861L89.6861 25.0113ZM92.2636 20.0611C91.9108 
20.0543 91.5602 20.1175 91.2326 20.2489C90.9052 20.3803 90.6079 20.5766 
90.3586 20.8259C89.8476 21.3294 89.5632 22.0463 89.5052 22.9749L94.6619 
22.2068C94.6028 21.6469 94.3632 21.1212 93.9791 20.7098C93.5956 20.2796 
93.0237 20.0645 92.2636 20.0645V20.0611Z" fill="#212322"/>
<path d="M106.654 20.643C106.276 20.3323 105.763 20.177 105.118 
20.177C104.698 20.1753 104.28 20.2333 103.876 20.3477C103.529 20.4416 
103.196 20.5833 102.887 20.7659V29.1744C102.749 29.2051 102.563 29.2444 
102.331 29.2905C102.07 29.34 101.806 29.3639 101.54 29.3605C101 29.3605 
100.598 29.2597 100.334 29.0583C100.069 28.8569 99.9376 28.5019 99.9376 
27.9898V20.5269C99.9231 20.2094 100.004 19.8936 100.17 19.6205C100.363 
19.3508 100.608 19.1221 100.89 18.9463C101.441 18.5929 102.045 18.3301 
102.679 18.1679C103.481 17.9511 104.309 17.847 105.14 17.8538C106.734 
17.8538 107.969 18.2072 108.846 18.9121C109.724 19.6188 110.158 20.6533 
110.15 22.0188V29.1727C110.027 29.2034 109.845 29.2427 109.606 
29.2888C109.349 29.3383 109.089 29.3622 108.827 29.3588C108.27 29.3588 
107.863 29.258 107.607 29.0566C107.353 28.8552 107.225 28.5001 107.225 
27.9881V22.1059C107.225 21.4402 107.033 20.952 106.654 20.643Z" 
fill="#212322"/>
<path d="M121.904 26.0789C121.904 27.1645 121.502 28.0112 120.696 
28.6223C119.89 29.2334 118.714 29.5406 117.166 29.5406C116.586 29.5457 
116.007 29.4997 115.435 29.4006C114.97 29.3255 114.517 29.189 114.088 
28.9944C113.749 28.8476 113.447 28.6257 113.206 28.344C113.002 28.1068 
112.891 27.8046 112.892 27.4905C112.885 27.2226 112.954 26.9563 113.09 
26.7241C113.22 26.509 113.399 26.3247 113.612 26.1898C114.084 26.4886 
114.586 26.7395 115.109 26.9341C115.739 27.1611 116.404 27.2721 117.074 
27.2584C117.707 27.2584 118.188 27.1543 118.513 26.946C118.665 26.8573 
118.79 26.731 118.876 26.5773C118.962 26.4237 119.005 26.2496 119.001 
26.0738C119.001 25.4388 118.536 25.0206 117.606 24.8192L116.306 
24.517C115.161 24.2542 114.313 23.8598 113.762 23.3324C113.211 22.8066 
112.937 22.1017 112.938 21.2192C112.929 20.7463 113.034 20.2769 113.244 
19.8519C113.455 19.4269 113.764 19.0582 114.146 18.7765C114.951 18.1518 
116.081 17.8377 117.538 17.836C118.053 17.8343 118.567 17.877 119.074 
17.964C119.499 18.0357 119.913 18.1603 120.305 18.3361C120.614 18.471 
120.892 18.669 121.119 18.9165C121.308 19.1316 121.411 19.4098 121.408 
19.6949C121.414 19.9509 121.35 20.2035 121.223 20.4254C121.112 20.6217 
120.961 20.7907 120.781 20.9256C120.608 20.8163 120.425 20.7225 120.235 
20.6473C119.993 20.5483 119.745 20.463 119.492 20.3913C119.221 20.3162 
118.936 20.2496 118.639 20.1933C118.344 20.1421 118.044 20.1148 117.745 
20.1131C117.255 20.0892 116.768 20.1882 116.328 20.4032C116.173 20.4783 
116.043 20.5961 115.952 20.7412C115.861 20.888 115.814 21.057 115.816 
21.2277C115.812 21.3506 115.837 21.4735 115.887 21.5862C115.937 21.6988 
116.012 21.7978 116.106 21.8781C116.299 22.0488 116.637 22.1887 117.116 
22.2963L118.253 22.5745C119.54 22.8715 120.47 23.3017 121.042 
23.865C121.615 24.43 121.902 25.1674 121.904 26.0789Z" fill="#212322"/>
<path d="M142.484 27.2181C142.504 27.5356 142.418 27.8497 142.24 
28.1126C142.024 28.3618 141.759 28.5649 141.462 28.7049C141.224 28.8483 
140.971 28.9626 140.707 29.0463C140.379 29.1538 140.045 29.2392 139.707 
29.3023C139.344 29.374 138.968 29.4303 138.58 29.473C138.195 29.5191 
137.807 29.543 137.419 29.543C136.385 29.5532 135.355 29.4081 134.364 
29.1128C133.465 28.8466 132.633 28.3925 131.925 27.778C131.216 27.1464 
130.663 26.3595 130.31 25.477C129.9 24.4187 129.703 23.2904 129.73 
22.1553C129.708 21.0457 129.909 19.943 130.322 18.912C130.684 18.0227 
131.24 17.2256 131.949 16.5769C132.647 15.9522 133.465 15.4742 134.352 
15.1704C135.302 14.8495 136.3 14.689 137.303 14.6959C137.939 14.689 
138.573 14.7471 139.196 14.8665C139.7 14.9638 140.192 15.1192 140.659 
15.3308C141.022 15.4896 141.344 15.7269 141.601 16.0273C141.798 16.256 
141.912 16.5445 141.925 16.8466C141.937 17.147 141.847 17.4441 141.67 
17.6882C141.516 17.9067 141.318 18.0876 141.089 18.2224C140.627 17.9305 
140.137 17.6847 139.627 17.4901C138.949 17.2478 138.232 17.1317 137.512 
17.1488C136.87 17.1436 136.233 17.2597 135.634 17.4901C135.079 17.7035 
134.576 18.033 134.159 18.4546C133.731 18.9001 133.403 19.431 133.195 
20.0113C132.955 20.6907 132.839 21.4059 132.853 22.1245C132.834 22.8756 
132.95 23.6233 133.195 24.3333C133.402 24.9086 133.731 25.4326 134.159 
25.8696C134.57 26.281 135.071 26.59 135.622 26.7743C136.217 26.974 136.841 
27.0713 137.469 27.0645C137.882 27.0696 138.294 27.0304 138.7 
26.9484C138.996 26.8955 139.283 26.8033 139.553 
26.6702V23.4543H136.583C136.491 23.3024 136.421 23.1385 136.373 
22.9661C136.309 22.7476 136.278 22.5223 136.281 22.2935C136.256 21.9658 
136.36 21.6398 136.571 21.3871C136.669 21.2864 136.786 21.2079 136.916 
21.1567C137.046 21.1038 137.186 21.0799 137.326 21.085H141.229C141.396 
21.0765 141.563 21.1004 141.72 21.1567C141.878 21.213 142.022 21.3001 
142.146 21.411C142.263 21.5305 142.353 21.6722 142.412 21.8275C142.471 
21.9829 142.497 22.1502 142.487 22.3157L142.484 27.2181Z" fill="#212322"/>
<path d="M147.985 25.0108C148.201 25.8011 148.604 26.3746 149.194 
26.7297C149.858 27.1069 150.614 27.2913 151.377 27.264C151.989 27.2708 
152.598 27.1735 153.178 26.9738C153.645 26.8202 154.092 26.6136 154.513 
26.3576C154.729 26.4822 154.914 26.658 155.047 26.8697C155.184 27.0762 
155.257 27.3186 155.257 27.5661C155.259 27.8717 155.146 28.1652 154.943 
28.3906C154.704 28.6534 154.414 28.8634 154.089 29.0068C153.678 29.1928 
153.245 29.326 152.8 29.4011C152.272 29.4984 151.735 29.5445 151.198 
29.5411C150.351 29.5513 149.508 29.425 148.7 29.1689C147.982 28.9402 
147.323 28.5561 146.771 28.0423C146.223 27.5183 145.795 26.8799 145.519 
26.1732C145.201 25.3436 145.047 24.4611 145.064 23.5718C145.045 22.7149 
145.196 21.8614 145.507 21.0626C145.774 20.3883 146.181 19.7789 146.701 
19.2737C147.202 18.7957 147.8 18.4305 148.455 18.2051C149.135 17.9713 
149.85 17.8518 150.569 17.8552C151.282 17.8484 151.99 17.9696 152.659 
18.2154C153.263 18.4373 153.816 18.777 154.286 19.2156C154.74 19.6509 
155.1 20.1733 155.342 20.7519C155.602 21.3664 155.733 22.0253 155.726 
22.691C155.726 23.1246 155.612 23.4506 155.385 23.6674C155.122 23.903 
154.793 24.0481 154.443 24.0856L147.985 25.0108ZM150.564 14.7434C150.177 
15.1923 149.836 15.5764 149.54 15.8939C149.245 16.2114 148.936 16.563 
148.61 16.9505C148.223 16.9539 147.845 16.8344 147.531 16.6091C147.403 
16.5186 147.3 16.3975 147.229 16.2592C147.157 16.1192 147.121 15.9639 
147.123 15.8069C147.117 15.5815 147.186 15.3596 147.321 15.1787C147.452 
15.0114 147.642 14.7946 147.891 14.5283L148.982 13.3676C149.205 13.1542 
149.455 12.9699 149.726 12.8214C150.002 12.6865 150.307 12.6217 150.614 
12.6319C150.913 12.6268 151.21 12.6848 151.484 12.8026C151.818 12.9818 
152.109 13.231 152.338 13.5332L154.13 15.7198C154.137 16.0236 154.038 
16.3189 153.852 16.5562C153.745 16.6757 153.613 16.7679 153.465 
16.8276C153.317 16.8856 153.157 16.9113 152.998 16.8976C152.762 16.9061 
152.529 16.8361 152.336 16.6996C152.14 16.5494 151.964 16.3736 151.814 
16.1773L150.564 14.7434ZM150.564 20.064C150.213 20.0572 149.864 20.1203 
149.538 20.2518C149.212 20.3815 148.916 20.5778 148.668 20.8253C148.156 
21.3289 147.871 22.0458 147.814 22.9744L152.971 22.2062C152.915 21.6481 
152.679 21.1223 152.299 20.7092C151.903 20.2791 151.326 20.064 150.568 
20.064H150.564Z" fill="#212322"/>
<path d="M164.958 20.8244C164.579 20.5137 164.067 20.3584 163.421 
20.3584C163.001 20.3567 162.583 20.4147 162.179 20.5291C161.832 20.623 
161.499 20.7646 161.192 20.9473V29.3592C161.052 29.3899 160.866 29.4292 
160.634 29.4753C160.373 29.5248 160.11 29.5487 159.845 29.5453C159.302 
29.5453 158.9 29.4445 158.637 29.2431C158.374 29.0417 158.237 28.6832 
158.227 28.1643V20.7134C158.213 20.3925 158.295 20.075 158.466 
19.8002C158.659 19.5305 158.903 19.3018 159.186 19.126C159.736 18.7726 
160.339 18.5098 160.974 18.3476C161.776 18.1308 162.605 18.0267 163.437 
18.0335C165.029 18.0335 166.263 18.3869 167.141 19.0918C168.017 19.7985 
168.455 20.8312 168.455 22.1917V29.3592C168.331 29.3899 168.148 29.4292 
167.909 29.4753C167.651 29.5231 167.392 29.547 167.131 29.5453C166.572 
29.5453 166.166 29.4445 165.91 29.2431C165.654 29.0417 165.526 28.6866 
165.528 28.1746V22.2924C165.528 21.6267 165.337 21.1385 164.958 20.8244Z" 
fill="#212322"/>
<path d="M171.521 15.0904C171.518 14.877 171.557 14.6654 171.639 
14.4674C171.721 14.2694 171.844 14.0901 171.997 13.9416C172.156 13.7829 
172.347 13.66 172.557 13.5763C172.767 13.4944 172.991 13.4569 173.216 
13.4637C173.44 13.4569 173.662 13.4944 173.87 13.5763C174.078 13.6583 
174.268 13.7829 174.425 13.9416C174.575 14.0918 174.694 14.2711 174.773 
14.4691C174.853 14.6671 174.892 14.8787 174.889 15.0904C174.894 15.3106 
174.855 15.5308 174.773 15.7339C174.691 15.9388 174.566 16.1231 174.409 
16.2785C174.254 16.4338 174.066 16.5533 173.861 16.6335C173.655 16.712 
173.436 16.7496 173.216 16.7393C172.991 16.7479 172.767 16.7103 172.557 
16.6284C172.347 16.5464 172.156 16.4218 171.997 16.2631C171.842 16.1112 
171.719 15.9285 171.637 15.7271C171.555 15.5257 171.516 15.3089 171.521 
15.0904ZM171.753 18.4582C171.878 18.4275 172.059 18.39 172.299 
18.3422C172.556 18.2944 172.817 18.2705 173.078 18.2722C173.634 18.2722 
174.041 18.3746 174.297 18.576C174.553 18.7774 174.681 19.1325 174.681 
19.6446V29.3589C174.556 29.3896 174.373 29.4289 174.134 29.475C173.877 
29.5228 173.617 29.5467 173.356 29.545C172.796 29.545 172.39 29.4442 
172.137 29.2428C171.883 29.0414 171.755 28.6863 171.753 28.1743V18.4582Z" 
fill="#212322"/>
<path d="M188.804 23.6856C188.816 24.5135 188.678 25.3362 188.398 
26.1146C188.147 26.8042 187.754 27.4324 187.247 27.9615C186.744 28.4787 
186.133 28.8782 185.458 29.1342C183.941 29.677 182.284 29.677 180.766 
29.1342C180.094 28.8799 179.484 28.4822 178.977 27.9718C178.468 27.4494 
178.076 26.823 177.827 26.1368C177.286 24.5561 177.286 22.8406 177.827 
21.2583C178.078 20.5704 178.475 19.9456 178.989 19.4233C179.501 18.9146 
180.116 18.5203 180.79 18.2626C182.292 17.7198 183.936 17.7198 185.436 
18.2626C186.112 18.522 186.727 18.9215 187.235 19.4353C187.749 19.9627 
188.145 20.5926 188.398 21.2822C188.678 22.052 188.814 22.8663 188.804 
23.6856ZM183.113 20.1778C182.734 20.1624 182.359 20.2375 182.014 
20.398C181.671 20.5584 181.37 20.7974 181.138 21.0961C180.658 21.7123 
180.418 22.5761 180.418 23.6856C180.418 24.8173 180.655 25.6844 181.126 
26.2887C181.599 26.893 182.26 27.1934 183.113 27.1934C183.967 27.1934 
184.625 26.8878 185.098 26.2768C185.571 25.6657 185.807 24.8019 185.807 
23.6856C185.807 22.5692 185.566 21.7089 185.086 21.0961C184.854 20.7974 
184.555 20.5584 184.212 20.398C183.868 20.2375 183.492 20.1624 183.113 
20.1778Z" fill="#212322"/>
<path d="M200 26.0796C200 27.1652 199.597 28.0119 198.791 28.623C197.986 
29.2341 196.811 29.5413 195.268 29.5413C194.688 29.5465 194.109 29.5004 
193.537 29.4014C193.073 29.3263 192.619 29.1897 192.191 28.9951C191.851 
28.8483 191.549 28.6264 191.308 28.3448C191.105 28.1075 190.992 27.8054 
190.994 27.4913C190.987 27.2233 191.055 26.957 191.192 26.7249C191.322 
26.5098 191.501 26.3254 191.714 26.1906C192.187 26.491 192.689 26.7402 
193.213 26.9348C193.841 27.1635 194.507 27.2728 195.176 27.2591C195.809 
27.2591 196.291 27.155 196.615 26.9468C196.767 26.858 196.892 26.7317 
196.979 26.5781C197.064 26.4244 197.107 26.2503 197.103 26.0745C197.103 
25.4395 196.639 25.0213 195.709 24.8199L194.408 24.5178C193.263 24.2549 
192.414 23.8606 191.865 23.3331C191.315 22.8074 191.04 22.1024 191.04 
21.2199C191.03 20.7454 191.134 20.2743 191.344 19.8475C191.556 19.4208 
191.865 19.0504 192.249 18.7687C193.053 18.144 194.184 17.8299 195.64 
17.8282C196.156 17.8265 196.67 17.8691 197.177 17.9562C197.602 18.0279 
198.015 18.1525 198.407 18.3283C198.716 18.4632 198.995 18.6612 199.222 
18.9087C199.411 19.1238 199.513 19.402 199.51 19.6871C199.515 19.9431 
199.452 20.1957 199.326 20.4176C199.215 20.6139 199.063 20.7829 198.884 
20.9178C198.711 20.8085 198.529 20.7146 198.337 20.6395C198.095 20.5405 
197.847 20.4552 197.595 20.3835C197.323 20.3084 197.038 20.2418 196.741 
20.1855C196.446 20.1343 196.147 20.107 195.847 20.1053C195.357 20.0814 
194.871 20.1804 194.43 20.3954C194.275 20.4706 194.145 20.5883 194.055 
20.7334C193.964 20.8802 193.916 21.0492 193.918 21.2199C193.915 21.3428 
193.939 21.4657 193.99 21.5784C194.039 21.691 194.114 21.79 194.208 
21.8703C194.401 22.041 194.739 22.1809 195.219 22.2885L196.356 
22.5667C197.643 22.8637 198.573 23.2939 199.145 23.8572C199.717 24.4222 
200.002 25.163 200 26.0796Z" fill="#212322"/>
</svg>

